<?xml version="1.0" encoding="UTF-8" standalone="no"?>
<svg
   version="1.1"
   viewBox="0 0 192.82001 16.919999"
   fill="none"
   stroke="none"
   stroke-linecap="square"
   stroke-miterlimit="10"
   id="svg223"
   width="192.82001"
   height="16.92"
   xmlns="http://www.w3.org/2000/svg"
   xmlns:svg="http://www.w3.org/2000/svg">
  <defs
     id="defs227" />
  <clipPath
     id="p.0">
    <path
       d="M 0,0 H 214.55118 V 100 H 0 Z"
       clip-rule="nonzero"
       id="path212" />
  </clipPath>
  <g
     clip-path="url(#p.0)"
     id="g221">
    <path
       fill="#000000"
       fill-opacity="0"
       d="M 0,0 H 214.55118 V 100 H 0 Z"
       fill-rule="evenodd"
       id="path215" />
    <path
       fill="#000000"
       fill-opacity="0"
       d="M 0.02362205,29.430447 H 214.35432 v 42.01575 H 0.02362205 Z"
       fill-rule="evenodd"
       id="path217" />
    <path
       fill="#000000"
       d="m 7.1841909,12.706349 q -0.625,0.25 -1.28125,0.359375 -0.640625,0.109375 -1.328125,0.109375 -2.171875,0 -3.34375,-1.171875 -1.17187499,-1.171875 -1.17187499,-3.4375002 0,-1.078125 0.328125,-1.953125 0.34375,-0.890625 0.95312499,-1.515625 0.609375,-0.640625 1.453125,-0.984375 0.859375,-0.34375 1.875,-0.34375 0.71875,0 1.328125,0.109375 0.625,0.09375 1.1875,0.328125 v 1.515625 q -0.59375,-0.3125 -1.21875,-0.453125 -0.609375,-0.140625 -1.265625,-0.140625 -0.609375,0 -1.15625,0.234375 -0.53125,0.234375 -0.9375,0.671875 -0.40625,0.421875 -0.65625,1.0625 -0.234375,0.625 -0.234375,1.421875 0,1.6562502 0.796875,2.4843752 0.8125,0.8125 2.25,0.8125 0.640625,0 1.25,-0.140625 0.609375,-0.140625 1.171875,-0.4375 z m 10.5072941,0.34375 h -1.59375 V 7.2063488 q 0,-1.046875 -0.390625,-1.5625 -0.390625,-0.53125 -1.140625,-0.53125 -0.3125,0 -0.59375,0.09375 -0.28125,0.078125 -0.578125,0.296875 -0.296875,0.203125 -0.65625,0.578125 -0.359375,0.359375 -0.8125,0.90625 V 13.050099 H 10.33211 V 0.17509882 h 1.59375 V 3.9094738 l -0.0625,1.4375 q 0.375,-0.453125 0.734375,-0.75 0.359375,-0.3125 0.71875,-0.5 0.359375,-0.1875 0.734375,-0.265625 0.375,-0.09375 0.78125,-0.09375 1.359375,0 2.109375,0.84375 0.75,0.828125 0.75,2.5 z m 8.772917,0 -0.03125,-1.234375 q -0.75,0.75 -1.515625,1.078125 -0.765625,0.3125 -1.625,0.3125 -0.78125,0 -1.34375,-0.1875 -0.546873,-0.203125 -0.906248,-0.546875 -0.359375,-0.359375 -0.53125,-0.828125 -0.15625,-0.484375 -0.15625,-1.03125 0,-1.3750002 1.015625,-2.1562502 1.031248,-0.78125 3.031248,-0.78125 h 1.890625 v -0.796875 q 0,-0.8125 -0.515625,-1.296875 -0.515625,-0.5 -1.578125,-0.5 -0.78125,0 -1.53125,0.1875 -0.75,0.171875 -1.546873,0.484375 v -1.4375 q 0.296875,-0.109375 0.656248,-0.203125 0.375,-0.109375 0.78125,-0.1875 0.40625,-0.078125 0.859375,-0.125 0.453125,-0.0625 0.90625,-0.0625 0.828125,0 1.484375,0.1875 0.671875,0.171875 1.125,0.546875 0.46875,0.375 0.703125,0.953125 0.25,0.5625 0.25,1.328125 V 13.050099 Z M 26.292527,8.8938488 h -2.015625 q -0.578125,0 -1.015625,0.125 -0.421875,0.109375 -0.703125,0.328125 -0.265625,0.21875 -0.40625,0.53125 -0.125,0.2968752 -0.125,0.6718752 0,0.265625 0.07813,0.515625 0.07813,0.234375 0.265625,0.421875 0.1875,0.1875 0.46875,0.296875 0.296875,0.109375 0.71875,0.109375 0.546875,0 1.25,-0.328125 0.703125,-0.34375 1.484375,-1.0625 z m 4.554169,-4.984375 h 1.421875 l 0.0625,1.46875 q 0.390625,-0.46875 0.765625,-0.78125 0.375,-0.3125 0.734375,-0.5 0.359375,-0.203125 0.734375,-0.28125 0.375,-0.078125 0.78125,-0.078125 1.40625,0 2.125,0.84375 0.734375,0.828125 0.734375,2.5 v 5.9687502 h -1.59375 V 7.2063488 q 0,-1.078125 -0.40625,-1.578125 -0.390625,-0.515625 -1.1875,-0.515625 -0.28125,0 -0.5625,0.09375 -0.28125,0.078125 -0.578125,0.296875 -0.296875,0.203125 -0.65625,0.578125 -0.34375,0.359375 -0.78125,0.90625 v 6.0625002 h -1.59375 z m 16.851044,1.28125 q 0.25,0.328125 0.390625,0.75 0.140625,0.421875 0.140625,0.921875 0,0.703125 -0.265625,1.296875 -0.25,0.578125 -0.734375,1 -0.46875,0.421875 -1.125,0.65625 -0.65625,0.2343752 -1.453125,0.2343752 -0.578125,0 -1.078125,-0.1250001 -0.5,-0.1250001 -0.78125,-0.3125001 -0.1875,0.265625 -0.3125,0.5000002 -0.109375,0.21875 -0.109375,0.5 0,0.34375 0.328125,0.578125 0.34375,0.21875 0.890625,0.234375 l 2.40625,0.09375 q 0.671875,0.01563 1.25,0.171875 0.59375,0.15625 1,0.453125 0.421875,0.28125 0.640625,0.71875 0.234375,0.421875 0.234375,0.984375 0,0.609375 -0.265625,1.15625 -0.25,0.546875 -0.8125,0.953125 -0.546875,0.421875 -1.390625,0.671875 -0.84375,0.25 -2.015625,0.25 -1.109375,0 -1.890625,-0.1875 -0.78125,-0.171875 -1.28125,-0.484375 -0.5,-0.3125 -0.734375,-0.75 -0.21875,-0.421875 -0.21875,-0.953125 0,-0.65625 0.296875,-1.15625 0.3125,-0.5 0.96875,-0.96875 -0.234375,-0.109375 -0.40625,-0.265625 -0.171875,-0.171875 -0.28125,-0.359375 -0.109375,-0.203125 -0.171875,-0.421875 -0.04687,-0.21875 -0.04687,-0.4375 0,-0.578125 0.265625,-1.0625002 0.28125,-0.5 0.671875,-0.9375 -0.171875,-0.21875 -0.3125,-0.40625 -0.125,-0.203125 -0.234375,-0.4375 -0.09375,-0.234375 -0.140625,-0.5 -0.04687,-0.28125 -0.04687,-0.625 0,-0.703125 0.25,-1.28125 0.265625,-0.59375 0.734375,-1.015625 0.46875,-0.421875 1.125,-0.65625 0.671875,-0.234375 1.46875,-0.234375 0.34375,0 0.640625,0.046875 0.3125,0.046875 0.546875,0.125 H 49.1665 v 1.28125 z m -5.5,9.1875002 q 0,0.640625 0.671875,0.9375 0.671875,0.296875 1.875,0.296875 0.75,0 1.265625,-0.140625 0.515625,-0.140625 0.828125,-0.359375 0.3125,-0.21875 0.453125,-0.515625 0.140625,-0.28125 0.140625,-0.578125 0,-0.5625 -0.453125,-0.828125 -0.453125,-0.265625 -1.390625,-0.296875 l -2.390625,-0.09375 q -0.296875,0.203125 -0.5,0.390625 -0.203125,0.203125 -0.3125,0.390625 -0.109375,0.203125 -0.15625,0.390625 -0.03125,0.203125 -0.03125,0.40625 z m 0.484375,-7.4843752 q 0,0.4375 0.140625,0.8125 0.140625,0.359375 0.40625,0.609375 0.265625,0.25 0.625,0.390625 0.359375,0.140625 0.796875,0.140625 0.46875,0 0.84375,-0.15625 0.375,-0.15625 0.625,-0.421875 0.25,-0.28125 0.375,-0.640625 0.140625,-0.359375 0.140625,-0.734375 0,-0.4375 -0.15625,-0.796875 -0.140625,-0.375 -0.40625,-0.625 -0.265625,-0.25 -0.625,-0.390625 -0.359375,-0.140625 -0.796875,-0.140625 -0.46875,0 -0.84375,0.171875 -0.359375,0.15625 -0.625,0.421875 -0.25,0.265625 -0.375,0.625 -0.125,0.34375 -0.125,0.734375 z m 15.929169,3.6562502 q 0,0.484375 -0.171875,0.875 -0.15625,0.375 -0.4375,0.671875 -0.28125,0.296875 -0.65625,0.515625 -0.375,0.203125 -0.796875,0.34375 -0.421875,0.125 -0.875,0.1875 -0.453125,0.0625 -0.875,0.0625 -0.921875,0 -1.703125,-0.07813 -0.78125,-0.07813 -1.53125,-0.265625 v -1.453125 q 0.796875,0.234375 1.59375,0.359375 0.796875,0.109375 1.578125,0.109375 1.140625,0 1.6875,-0.3125 0.546875,-0.3125 0.546875,-0.890625 0,-0.234375 -0.09375,-0.421875 -0.07813,-0.203125 -0.3125,-0.3750002 -0.21875,-0.1875 -0.703125,-0.375 -0.484375,-0.203125 -1.3125,-0.4375 -0.609375,-0.1875 -1.140625,-0.421875 -0.515625,-0.234375 -0.90625,-0.546875 -0.375,-0.328125 -0.59375,-0.75 -0.21875,-0.421875 -0.21875,-1.015625 0,-0.375 0.171875,-0.828125 0.171875,-0.453125 0.59375,-0.84375 0.4375,-0.40625 1.171875,-0.65625 0.734375,-0.265625 1.8125,-0.265625 0.546875,0 1.203125,0.0625 0.65625,0.0625 1.359375,0.203125 v 1.40625 q -0.75,-0.171875 -1.421875,-0.25 -0.65625,-0.09375 -1.15625,-0.09375 -0.59375,0 -1,0.09375 -0.390625,0.078125 -0.65625,0.25 -0.25,0.15625 -0.359375,0.375 -0.109375,0.203125 -0.109375,0.453125 0,0.25 0.09375,0.453125 0.109375,0.1875 0.359375,0.375 0.265625,0.1875 0.71875,0.375 0.46875,0.1875 1.21875,0.40625 0.8125,0.234375 1.359375,0.5 0.5625,0.25 0.90625,0.578125 0.359375,0.3125 0.5,0.71875 0.15625,0.4062502 0.15625,0.9062502 z M 69.352953,7.9875988 q 0,0.34375 -0.01563,0.578125 0,0.21875 -0.03125,0.421875 h -6.421875 q 0,1.4062502 0.78125,2.1562502 0.796875,0.75 2.265625,0.75 0.40625,0 0.796875,-0.03125 0.40625,-0.03125 0.78125,-0.07813 0.375,-0.0625 0.71875,-0.125 0.34375,-0.07813 0.625,-0.15625 v 1.296875 q -0.640625,0.1875 -1.46875,0.296875 -0.8125,0.109375 -1.6875,0.109375 -1.171875,0 -2.015625,-0.3125 -0.84375,-0.3125 -1.390625,-0.921875 -0.546875,-0.609375 -0.8125,-1.484375 -0.25,-0.8750002 -0.25,-2.0000002 0,-0.953125 0.28125,-1.8125 0.28125,-0.859375 0.8125,-1.515625 0.53125,-0.65625 1.296875,-1.03125 0.78125,-0.390625 1.765625,-0.390625 0.953125,0 1.6875,0.3125 0.75,0.296875 1.25,0.84375 0.5,0.546875 0.765625,1.34375 0.265625,0.78125 0.265625,1.75 z m -1.65625,-0.21875 q 0.03125,-0.609375 -0.125,-1.109375 -0.140625,-0.515625 -0.453125,-0.875 -0.296875,-0.375 -0.75,-0.578125 -0.453125,-0.203125 -1.0625,-0.203125 -0.515625,0 -0.953125,0.203125 -0.421875,0.203125 -0.734375,0.5625 -0.296875,0.359375 -0.5,0.875 -0.1875,0.515625 -0.234375,1.125 z m 12.147919,0.640625 q 0,1.0625 -0.3125,1.9531252 -0.296875,0.890625 -0.859375,1.53125 -0.5625,0.625 -1.375,0.96875 -0.8125,0.34375 -1.84375,0.34375 -0.984375,0 -1.765625,-0.296875 -0.765625,-0.3125 -1.3125,-0.890625 -0.546875,-0.59375 -0.828125,-1.46875 -0.28125,-0.8750002 -0.28125,-2.0156252 0,-1.0625 0.296875,-1.9375 0.296875,-0.890625 0.859375,-1.515625 0.5625,-0.640625 1.375,-0.984375 0.8125,-0.359375 1.84375,-0.359375 0.984375,0 1.765625,0.3125 0.78125,0.296875 1.3125,0.890625 0.546875,0.578125 0.828125,1.453125 0.296875,0.875 0.296875,2.015625 z m -1.625,0.0625 q 0,-0.84375 -0.1875,-1.46875 -0.1875,-0.640625 -0.53125,-1.0625 -0.34375,-0.421875 -0.84375,-0.640625 -0.5,-0.21875 -1.109375,-0.21875 -0.703125,0 -1.21875,0.28125 -0.5,0.28125 -0.828125,0.75 -0.3125,0.453125 -0.46875,1.078125 -0.15625,0.609375 -0.15625,1.28125 0,0.859375 0.1875,1.5000001 0.1875,0.6250001 0.53125,1.0468751 0.359375,0.421875 0.84375,0.640625 0.5,0.21875 1.109375,0.21875 0.71875,0 1.21875,-0.28125 0.5,-0.28125 0.828125,-0.734375 0.328125,-0.46875 0.46875,-1.0781252 0.15625,-0.625 0.15625,-1.3125 z m 12.147919,4.5781252 h -2.1875 l -4.25,-4.9062502 v 4.9062502 h -1.59375 V 0.17509882 h 1.59375 V 8.0813488 l 4.09375,-4.171875 h 2.109375 l -4.296875,4.21875 z m 7.679168,-3.7187502 q -0.09375,0.5781251 -0.109375,0.9687502 0,0.375 0.0625,0.59375 0.0625,0.21875 0.1875,0.3125 0.125,0.07813 0.3125,0.07813 0.265625,0 0.484375,-0.265625 0.234375,-0.265625 0.40625,-0.828125 0.1875,-0.5625002 0.28125,-1.4062502 0.109375,-0.859375 0.109375,-2.03125 0,-1.3125 -0.171875,-2.34375 -0.15625,-1.03125 -0.515625,-1.75 -0.34375,-0.71875 -0.921875,-1.09375 -0.5625,-0.390625 -1.375,-0.390625 -0.625,0 -1.203125,0.328125 -0.578125,0.3125 -1.078125,0.875 -0.484375,0.5625 -0.890625,1.359375 -0.40625,0.796875 -0.703125,1.765625 -0.28125,0.96875 -0.4375,2.078125 -0.15625,1.109375 -0.15625,2.3125 0,2.9375002 0.875,4.3750002 0.890625,1.453125 2.484375,1.453125 0.8125,0 1.515625,-0.1875 0.703125,-0.1875 1.453125,-0.5625 v 1.171875 q -0.734375,0.34375 -1.484375,0.515625 -0.75,0.1875 -1.5625,0.1875 -2.328125,0 -3.453125,-1.75 -1.109375,-1.734375 -1.125,-5.1875001 -0.01563,-1.3750001 0.171875,-2.6250001 0.203125,-1.265625 0.5625,-2.359375 0.359375,-1.09375 0.875,-1.984375 0.515625,-0.90625 1.15625,-1.53125 0.65625,-0.64062498 1.421875,-0.98437498 0.765625,-0.359375 1.625,-0.359375 1.09375,0 1.890625,0.453125 0.796875,0.43749998 1.312501,1.26562498 0.51562,0.828125 0.76562,2.046875 0.25,1.21875 0.25,2.765625 0,1.5625 -0.20312,2.6875 -0.1875,1.1093752 -0.54688,1.8281252 -0.359369,0.703125 -0.874996,1.03125 -0.5,0.328125 -1.109375,0.328125 -0.71875,0 -1.0625,-0.359375 -0.34375,-0.359375 -0.34375,-0.984375 -0.34375,0.703125 -0.75,1.03125 -0.390625,0.3125 -0.96875,0.3125 -0.84375,0 -1.28125,-0.640625 -0.421875,-0.640625 -0.421875,-2.0312502 0,-0.5 0.04687,-1.0625 0.0625,-0.578125 0.203125,-1.15625 0.140625,-0.578125 0.375,-1.109375 0.234375,-0.53125 0.5625,-0.9375 0.328125,-0.40625 0.78125,-0.65625 0.453125,-0.25 1.046875,-0.25 0.34375,0 0.640625,0.09375 0.296875,0.078125 0.4375,0.15625 l 1.171875,-0.28125 z m -0.9375,-3.234375 q -0.07813,-0.109375 -0.25,-0.1875 -0.171875,-0.09375 -0.421875,-0.09375 -0.265625,0 -0.484375,0.1875 -0.21875,0.1875 -0.390625,0.515625 -0.171875,0.3125 -0.28125,0.71875 -0.109375,0.40625 -0.1875,0.828125 -0.07813,0.421875 -0.109375,0.84375 -0.03125,0.421875 -0.03125,0.75 0,0.8750002 0.109375,1.2500002 0.109375,0.375 0.40625,0.375 0.109375,0 0.21875,-0.03125 0.109375,-0.04687 0.234375,-0.171875 0.125,-0.140625 0.265625,-0.375 0.15625,-0.25 0.328125,-0.625 z m 12.132291,-0.90625 q 0.25,0.328125 0.39063,0.75 0.14062,0.421875 0.14062,0.921875 0,0.703125 -0.26562,1.296875 -0.25,0.578125 -0.73438,1 -0.46875,0.421875 -1.125,0.65625 -0.65625,0.2343752 -1.45312,0.2343752 -0.57813,0 -1.07813,-0.1250001 -0.5,-0.1250001 -0.78125,-0.3125001 -0.1875,0.265625 -0.3125,0.5000002 -0.10937,0.21875 -0.10937,0.5 0,0.34375 0.32812,0.578125 0.34375,0.21875 0.89063,0.234375 l 2.40625,0.09375 q 0.67187,0.01563 1.25,0.171875 0.59375,0.15625 1,0.453125 0.42187,0.28125 0.64062,0.71875 0.23438,0.421875 0.23438,0.984375 0,0.609375 -0.26563,1.15625 -0.25,0.546875 -0.8125,0.953125 -0.54687,0.421875 -1.39062,0.671875 -0.84375,0.25 -2.01563,0.25 -1.10937,0 -1.89062,-0.1875 -0.78125,-0.171875 -1.28125,-0.484375 -0.5,-0.3125 -0.73438,-0.75 -0.21875,-0.421875 -0.21875,-0.953125 0,-0.65625 0.29688,-1.15625 0.3125,-0.5 0.96875,-0.96875 -0.23438,-0.109375 -0.40625,-0.265625 -0.17188,-0.171875 -0.28125,-0.359375 -0.10938,-0.203125 -0.17188,-0.421875 -0.0469,-0.21875 -0.0469,-0.4375 0,-0.578125 0.26562,-1.0625002 0.28125,-0.5 0.67188,-0.9375 -0.17188,-0.21875 -0.3125,-0.40625 -0.125,-0.203125 -0.23438,-0.4375 -0.0937,-0.234375 -0.14062,-0.5 -0.0469,-0.28125 -0.0469,-0.625 0,-0.703125 0.25,-1.28125 0.26563,-0.59375 0.73438,-1.015625 0.46875,-0.421875 1.125,-0.65625 0.67187,-0.234375 1.46875,-0.234375 0.34375,0 0.64062,0.046875 0.3125,0.046875 0.54688,0.125 h 3.32812 v 1.28125 z m -5.5,9.1875002 q 0,0.640625 0.67188,0.9375 0.67187,0.296875 1.875,0.296875 0.75,0 1.26562,-0.140625 0.51563,-0.140625 0.82813,-0.359375 0.3125,-0.21875 0.45312,-0.515625 0.14063,-0.28125 0.14063,-0.578125 0,-0.5625 -0.45313,-0.828125 -0.45312,-0.265625 -1.39062,-0.296875 l -2.39063,-0.09375 q -0.29687,0.203125 -0.5,0.390625 -0.20312,0.203125 -0.3125,0.390625 -0.10937,0.203125 -0.15625,0.390625 -0.0312,0.203125 -0.0312,0.40625 z m 0.48438,-7.4843752 q 0,0.4375 0.14062,0.8125 0.14063,0.359375 0.40625,0.609375 0.26563,0.25 0.625,0.390625 0.35938,0.140625 0.79688,0.140625 0.46875,0 0.84375,-0.15625 0.375,-0.15625 0.625,-0.421875 0.25,-0.28125 0.375,-0.640625 0.14062,-0.359375 0.14062,-0.734375 0,-0.4375 -0.15625,-0.796875 -0.14062,-0.375 -0.40625,-0.625 -0.26562,-0.25 -0.625,-0.390625 -0.35937,-0.140625 -0.79687,-0.140625 -0.46875,0 -0.84375,0.171875 -0.35938,0.15625 -0.625,0.421875 -0.25,0.265625 -0.375,0.625 -0.125,0.34375 -0.125,0.734375 z m 8.67917,-2.984375 h 1.42187 l 0.0625,1.46875 q 0.39063,-0.46875 0.76563,-0.78125 0.375,-0.3125 0.73437,-0.5 0.35938,-0.203125 0.73438,-0.28125 0.375,-0.078125 0.78125,-0.078125 1.40625,0 2.125,0.84375 0.73437,0.828125 0.73437,2.5 v 5.9687502 h -1.59375 V 7.2063488 q 0,-1.078125 -0.40625,-1.578125 -0.39062,-0.515625 -1.1875,-0.515625 -0.28125,0 -0.5625,0.09375 -0.28125,0.078125 -0.57812,0.296875 -0.29688,0.203125 -0.65625,0.578125 -0.34375,0.359375 -0.78125,0.90625 v 6.0625002 h -1.59375 z m 18.22604,4.5 q 0,1.0625 -0.3125,1.9531252 -0.29687,0.890625 -0.85937,1.53125 -0.5625,0.625 -1.375,0.96875 -0.8125,0.34375 -1.84375,0.34375 -0.98438,0 -1.76563,-0.296875 -0.76562,-0.3125 -1.3125,-0.890625 -0.54687,-0.59375 -0.82812,-1.46875 -0.28125,-0.8750002 -0.28125,-2.0156252 0,-1.0625 0.29687,-1.9375 0.29688,-0.890625 0.85938,-1.515625 0.5625,-0.640625 1.375,-0.984375 0.8125,-0.359375 1.84375,-0.359375 0.98437,0 1.76562,0.3125 0.78125,0.296875 1.3125,0.890625 0.54688,0.578125 0.82813,1.453125 0.29687,0.875 0.29687,2.015625 z m -1.625,0.0625 q 0,-0.84375 -0.1875,-1.46875 -0.1875,-0.640625 -0.53125,-1.0625 -0.34375,-0.421875 -0.84375,-0.640625 -0.5,-0.21875 -1.10937,-0.21875 -0.70313,0 -1.21875,0.28125 -0.5,0.28125 -0.82813,0.75 -0.3125,0.453125 -0.46875,1.078125 -0.15625,0.609375 -0.15625,1.28125 0,0.859375 0.1875,1.5000001 0.1875,0.6250001 0.53125,1.0468751 0.35938,0.421875 0.84375,0.640625 0.5,0.21875 1.10938,0.21875 0.71875,0 1.21875,-0.28125 0.5,-0.28125 0.82812,-0.734375 0.32813,-0.46875 0.46875,-1.0781252 0.15625,-0.625 0.15625,-1.3125 z m 10.44479,4.5781252 V 6.4875988 q 0,-0.4375 -0.0312,-0.703125 -0.0312,-0.28125 -0.10937,-0.4375 -0.0625,-0.15625 -0.17188,-0.21875 -0.10937,-0.0625 -0.25,-0.0625 -0.1875,0 -0.34375,0.109375 -0.15625,0.109375 -0.34375,0.359375 -0.17187,0.234375 -0.39062,0.640625 -0.20313,0.40625 -0.5,1 v 5.8750002 h -1.4375 V 6.6594738 q 0,-0.5 -0.0312,-0.8125 -0.0312,-0.3125 -0.10938,-0.484375 -0.0625,-0.171875 -0.17187,-0.234375 -0.10938,-0.0625 -0.26563,-0.0625 -0.17187,0 -0.3125,0.09375 -0.14062,0.078125 -0.32812,0.328125 -0.17188,0.234375 -0.39063,0.640625 -0.21875,0.40625 -0.51562,1.046875 v 5.8750002 h -1.46875 V 3.9094738 h 1.21875 l 0.0781,1.734375 q 0.23438,-0.515625 0.45313,-0.875 0.21875,-0.375 0.45312,-0.59375 0.25,-0.21875 0.51563,-0.328125 0.26562,-0.109375 0.59375,-0.109375 0.73437,0 1.10937,0.484375 0.39063,0.484375 0.39063,1.5 0.21875,-0.484375 0.42187,-0.84375 0.21875,-0.375 0.45313,-0.625 0.25,-0.25 0.53125,-0.375 0.29687,-0.140625 0.6875,-0.140625 1.71875,0 1.71875,2.65625 V 13.050099 Z M 151.4113,7.9875988 q 0,0.34375 -0.0156,0.578125 0,0.21875 -0.0312,0.421875 h -6.42188 q 0,1.4062502 0.78125,2.1562502 0.79688,0.75 2.26563,0.75 0.40625,0 0.79687,-0.03125 0.40625,-0.03125 0.78125,-0.07813 0.375,-0.0625 0.71875,-0.125 0.34375,-0.07813 0.625,-0.15625 v 1.296875 q -0.64062,0.1875 -1.46875,0.296875 -0.8125,0.109375 -1.6875,0.109375 -1.17187,0 -2.01562,-0.3125 -0.84375,-0.3125 -1.39063,-0.921875 -0.54687,-0.609375 -0.8125,-1.484375 -0.25,-0.8750002 -0.25,-2.0000002 0,-0.953125 0.28125,-1.8125 0.28125,-0.859375 0.8125,-1.515625 0.53125,-0.65625 1.29688,-1.03125 0.78125,-0.390625 1.76562,-0.390625 0.95313,0 1.6875,0.3125 0.75,0.296875 1.25,0.84375 0.5,0.546875 0.76563,1.34375 0.26562,0.78125 0.26562,1.75 z m -1.65625,-0.21875 q 0.0312,-0.609375 -0.125,-1.109375 -0.14062,-0.515625 -0.45312,-0.875 -0.29688,-0.375 -0.75,-0.578125 -0.45313,-0.203125 -1.0625,-0.203125 -0.51563,0 -0.95313,0.203125 -0.42187,0.203125 -0.73437,0.5625 -0.29688,0.359375 -0.5,0.875 -0.1875,0.515625 -0.23438,1.125 z m 7.78855,2.4062502 q 0.29687,0 0.57812,0.125 0.28125,0.125 0.48438,0.328125 0.20312,0.203125 0.3125,0.484375 0.125,0.28125 0.125,0.59375 0,0.3125 -0.125,0.59375 -0.10938,0.265625 -0.3125,0.46875 -0.20313,0.203125 -0.48438,0.3125 -0.28125,0.125 -0.57812,0.125 -0.32813,0 -0.60938,-0.125 -0.26562,-0.109375 -0.46875,-0.3125 -0.20312,-0.203125 -0.32812,-0.46875 -0.10938,-0.28125 -0.10938,-0.59375 0,-0.3125 0.10938,-0.59375 0.125,-0.28125 0.32812,-0.484375 0.20313,-0.203125 0.46875,-0.328125 0.28125,-0.125 0.60938,-0.125 z m 14.61667,-1.7656252 q 0,1.0625 -0.3125,1.9531252 -0.29688,0.890625 -0.85938,1.53125 -0.5625,0.625 -1.375,0.96875 -0.8125,0.34375 -1.84375,0.34375 -0.98437,0 -1.76562,-0.296875 -0.76563,-0.3125 -1.3125,-0.890625 -0.54688,-0.59375 -0.82813,-1.46875 -0.28125,-0.8750002 -0.28125,-2.0156252 0,-1.0625 0.29688,-1.9375 0.29687,-0.890625 0.85937,-1.515625 0.5625,-0.640625 1.375,-0.984375 0.8125,-0.359375 1.84375,-0.359375 0.98438,0 1.76563,0.3125 0.78125,0.296875 1.3125,0.890625 0.54687,0.578125 0.82812,1.453125 0.29688,0.875 0.29688,2.015625 z m -1.625,0.0625 q 0,-0.84375 -0.1875,-1.46875 -0.1875,-0.640625 -0.53125,-1.0625 -0.34375,-0.421875 -0.84375,-0.640625 -0.5,-0.21875 -1.10938,-0.21875 -0.70312,0 -1.21875,0.28125 -0.5,0.28125 -0.82812,0.75 -0.3125,0.453125 -0.46875,1.078125 -0.15625,0.609375 -0.15625,1.28125 0,0.859375 0.1875,1.5000001 0.1875,0.6250001 0.53125,1.0468751 0.35937,0.421875 0.84375,0.640625 0.5,0.21875 1.10937,0.21875 0.71875,0 1.21875,-0.28125 0.5,-0.28125 0.82813,-0.734375 0.32812,-0.46875 0.46875,-1.0781252 0.15625,-0.625 0.15625,-1.3125 z m 4.28854,-4.5625 h 1.45312 l 0.0469,1.6875 q 0.8125,-0.984375 1.59375,-1.421875 0.79687,-0.4375 1.59375,-0.4375 1.42187,0 2.15625,0.921875 0.73437,0.921875 0.67187,2.734375 h -1.59375 q 0.0156,-1.203125 -0.35937,-1.734375 -0.375,-0.546875 -1.10938,-0.546875 -0.3125,0 -0.64062,0.109375 -0.32813,0.109375 -0.67188,0.359375 -0.32812,0.25 -0.71875,0.640625 -0.375,0.390625 -0.8125,0.953125 v 5.8750002 h -1.60937 z m 16.47604,1.28125 q 0.25,0.328125 0.39063,0.75 0.14062,0.421875 0.14062,0.921875 0,0.703125 -0.26562,1.296875 -0.25,0.578125 -0.73438,1 -0.46875,0.421875 -1.125,0.65625 -0.65625,0.2343752 -1.45312,0.2343752 -0.57813,0 -1.07813,-0.1250001 -0.5,-0.1250001 -0.78125,-0.3125001 -0.1875,0.265625 -0.3125,0.5000002 -0.10937,0.21875 -0.10937,0.5 0,0.34375 0.32812,0.578125 0.34375,0.21875 0.89063,0.234375 l 2.40625,0.09375 q 0.67187,0.01563 1.25,0.171875 0.59375,0.15625 1,0.453125 0.42187,0.28125 0.64062,0.71875 0.23438,0.421875 0.23438,0.984375 0,0.609375 -0.26563,1.15625 -0.25,0.546875 -0.8125,0.953125 -0.54687,0.421875 -1.39062,0.671875 -0.84375,0.25 -2.01563,0.25 -1.10937,0 -1.89062,-0.1875 -0.78125,-0.171875 -1.28125,-0.484375 -0.5,-0.3125 -0.73438,-0.75 -0.21875,-0.421875 -0.21875,-0.953125 0,-0.65625 0.29688,-1.15625 0.3125,-0.5 0.96875,-0.96875 -0.23438,-0.109375 -0.40625,-0.265625 -0.17188,-0.171875 -0.28125,-0.359375 -0.10938,-0.203125 -0.17188,-0.421875 -0.0469,-0.21875 -0.0469,-0.4375 0,-0.578125 0.26562,-1.0625002 0.28125,-0.5 0.67188,-0.9375 -0.17188,-0.21875 -0.3125,-0.40625 -0.125,-0.203125 -0.23438,-0.4375 -0.0937,-0.234375 -0.14062,-0.5 -0.0469,-0.28125 -0.0469,-0.625 0,-0.703125 0.25,-1.28125 0.26563,-0.59375 0.73438,-1.015625 0.46875,-0.421875 1.125,-0.65625 0.67187,-0.234375 1.46875,-0.234375 0.34375,0 0.64062,0.046875 0.3125,0.046875 0.54688,0.125 h 3.32812 v 1.28125 z m -5.5,9.1875002 q 0,0.640625 0.67188,0.9375 0.67187,0.296875 1.875,0.296875 0.75,0 1.26562,-0.140625 0.51563,-0.140625 0.82813,-0.359375 0.3125,-0.21875 0.45312,-0.515625 0.14063,-0.28125 0.14063,-0.578125 0,-0.5625 -0.45313,-0.828125 -0.45312,-0.265625 -1.39062,-0.296875 l -2.39063,-0.09375 q -0.29687,0.203125 -0.5,0.390625 -0.20312,0.203125 -0.3125,0.390625 -0.10937,0.203125 -0.15625,0.390625 -0.0312,0.203125 -0.0312,0.40625 z m 0.48438,-7.4843752 q 0,0.4375 0.14062,0.8125 0.14063,0.359375 0.40625,0.609375 0.26563,0.25 0.625,0.390625 0.35938,0.140625 0.79688,0.140625 0.46875,0 0.84375,-0.15625 0.375,-0.15625 0.625,-0.421875 0.25,-0.28125 0.375,-0.640625 0.14062,-0.359375 0.14062,-0.734375 0,-0.4375 -0.15625,-0.796875 -0.14062,-0.375 -0.40625,-0.625 -0.26562,-0.25 -0.625,-0.390625 -0.35937,-0.140625 -0.79687,-0.140625 -0.46875,0 -0.84375,0.171875 -0.35938,0.15625 -0.625,0.421875 -0.25,0.265625 -0.375,0.625 -0.125,0.34375 -0.125,0.734375 z"
       fill-rule="nonzero"
       id="path219" />
  </g>
</svg>
