<?xml version="1.0" encoding="UTF-8" standalone="no"?>
<svg
   version="1.1"
   viewBox="0 0 191.8 18.160001"
   fill="none"
   stroke="none"
   stroke-linecap="square"
   stroke-miterlimit="10"
   id="svg13"
   sodipodi:docname="email.svg"
   width="191.8"
   height="18.16"
   inkscape:version="1.1 (c68e22c387, 2021-05-23)"
   xmlns:inkscape="http://www.inkscape.org/namespaces/inkscape"
   xmlns:sodipodi="http://sodipodi.sourceforge.net/DTD/sodipodi-0.dtd"
   xmlns="http://www.w3.org/2000/svg"
   xmlns:svg="http://www.w3.org/2000/svg">
  <defs
     id="defs17" />
  <sodipodi:namedview
     id="namedview15"
     pagecolor="#ffffff"
     bordercolor="#666666"
     borderopacity="1.0"
     inkscape:pageshadow="2"
     inkscape:pageopacity="0.0"
     inkscape:pagecheckerboard="0"
     showgrid="false"
     inkscape:zoom="8"
     inkscape:cx="65.375"
     inkscape:cy="-14.25"
     inkscape:window-width="1920"
     inkscape:window-height="1011"
     inkscape:window-x="0"
     inkscape:window-y="0"
     inkscape:window-maximized="1"
     inkscape:current-layer="g11" />
  <clipPath
     id="p.0">
    <path
       d="M 0,0 H 212.27559 V 100 H 0 Z"
       clip-rule="nonzero"
       id="path2" />
  </clipPath>
  <g
     clip-path="url(#p.0)"
     id="g11">
    <path
       fill="#000000"
       fill-opacity="0"
       d="M 0,0 H 212.27559 V 100 H 0 Z"
       fill-rule="evenodd"
       id="path5" />
    <path
       fill="#000000"
       fill-opacity="0"
       d="M 0.02362205,29.430447 H 212.24409 v 42.01575 H 0.02362205 Z"
       fill-rule="evenodd"
       id="path7" />
    <path
       fill="#000000"
       d="m 4.1632328,14.345649 q -1.9531246,0 -3.0624997,-1.28125 -1.09374994,-1.296875 -1.09374994,-3.4843723 0,-0.9374996 0.296875,-1.7656246 0.296875,-0.828125 0.85937494,-1.5 0.53125,-0.640625 1.34375,-1.03125 0.8125,-0.40625 1.7656247,-0.40625 1.328125,0 2.15625,0.640625 0.828125,0.625 0.828125,1.71875 0,0.453125 -0.21875,0.8125 -0.21875,0.34375 -0.71875,0.34375 -0.53125,0 -0.828125,-0.265625 -0.296875,-0.28125 -0.296875,-0.625 0,-0.40625 0.109375,-0.828125 0.109375,-0.4375 0.125,-0.640625 -0.171875,-0.28125 -0.5,-0.375 -0.3125,-0.09375 -0.6875,-0.09375 -0.4374997,0 -0.8437497,0.1875 -0.390625,0.171875 -0.765625,0.6875 -0.328125,0.453125 -0.546875,1.234375 -0.203125,0.765625 -0.203125,1.84375 0,1.6874969 0.75,2.7656219 0.75,1.0625 1.9687497,1.0625 0.890625,0 1.484375,-0.421875 0.59375,-0.4375 1.109375,-1.296875 l 0.578125,0.390625 q -0.59375,1.078125 -1.578125,1.703125 -0.984375,0.625 -2.03125,0.625 z M 18.228815,14.111274 h -4.40625 v -0.59375 q 0.21875,-0.03125 0.46875,-0.04687 0.25,-0.01563 0.421875,-0.0625 0.25,-0.09375 0.375,-0.296875 0.125,-0.203125 0.125,-0.53125 V 7.9550271 q 0,-0.953125 -0.453125,-1.46875 -0.453125,-0.515625 -1.09375,-0.515625 -0.484375,0 -0.890625,0.15625 -0.390625,0.140625 -0.71875,0.359375 -0.3125,0.234375 -0.484375,0.46875 -0.15625,0.21875 -0.25,0.375 v 5.1562469 q 0,0.3125 0.125,0.515625 0.125,0.203125 0.390625,0.3125 0.1875,0.09375 0.40625,0.140625 0.21875,0.03125 0.46875,0.0625 v 0.59375 H 8.3069404 v -0.59375 q 0.203125,-0.03125 0.421875,-0.04687 0.234375,-0.03125 0.390625,-0.0625 0.265625,-0.09375 0.390625,-0.296875 0.1250003,-0.203125 0.1250003,-0.53125 V 2.1269021 q 0,-0.3125 -0.1406253,-0.625 -0.140625,-0.3125 -0.375,-0.46875 -0.15625,-0.10937504 -0.578125,-0.15625002 -0.40625,-0.0625 -0.6718753,-0.078125 V 0.22065214 l 3.3281249,-0.203125 0.125,0.125 V 6.4081521 h 0.04687 q 0.296875,-0.296875 0.546875,-0.53125 0.25,-0.234375 0.640625,-0.484375 0.34375,-0.21875 0.8125,-0.359375 0.46875,-0.15625 1.0625,-0.15625 1.203125,0 1.84375,0.765625 0.640625,0.765625 0.640625,2.1875 v 4.6718719 q 0,0.328125 0.109375,0.53125 0.125,0.1875 0.390625,0.296875 0.203125,0.07813 0.375,0.125 0.171875,0.03125 0.4375,0.0625 z m 9.624144,-0.15625 q -0.4375,0.140625 -0.765625,0.234375 -0.3125,0.109375 -0.734375,0.109375 -0.703125,0 -1.125,-0.328125 -0.421875,-0.34375 -0.546875,-0.984375 h -0.04687 q -0.59375,0.65625 -1.28125,1.015625 -0.671875,0.34375 -1.624998,0.34375 -1.015625,0 -1.671875,-0.625 -0.640625,-0.625 -0.640625,-1.625 0,-0.515625 0.140625,-0.921875 0.140625,-0.421875 0.4375,-0.75 0.234375,-0.265625 0.59375,-0.4687492 0.375,-0.2187489 0.703125,-0.3593731 0.421875,-0.1562496 1.671873,-0.5624996 1.25,-0.421875 1.6875,-0.65625 v -0.90625 q 0,-0.125 -0.0625,-0.453125 -0.04687,-0.34375 -0.203125,-0.640625 -0.1875,-0.34375 -0.515625,-0.59375 -0.328125,-0.25 -0.9375,-0.25 -0.421875,0 -0.781248,0.140625 -0.359375,0.140625 -0.515625,0.296875 0,0.1875 0.09375,0.546875 0.09375,0.359375 0.09375,0.65625 0,0.3125 -0.296875,0.578125 -0.28125,0.265625 -0.796875,0.265625 -0.453125,0 -0.671875,-0.3125 -0.203125,-0.328125 -0.203125,-0.734375 0,-0.421875 0.296875,-0.796875 0.296875,-0.390625 0.765625,-0.6875 0.40625,-0.25 0.984375,-0.421875 0.593748,-0.1875 1.140623,-0.1875 0.765625,0 1.328125,0.109375 0.578125,0.09375 1.046875,0.4375 0.46875,0.34375 0.703125,0.921875 0.234375,0.578125 0.234375,1.484375 0,1.3125 -0.03125,2.3281219 -0.01563,1 -0.01563,2.1875 0,0.359375 0.125,0.5625 0.125,0.203125 0.375,0.359375 0.140625,0.07813 0.4375,0.09375 0.296875,0 0.609375,0 z m -3.1875,-4.8124969 q -0.78125,0.21875 -1.359375,0.4374996 -0.578125,0.2187492 -1.078123,0.5468723 -0.453125,0.3125 -0.71875,0.734375 -0.265625,0.421875 -0.265625,1.015625 0,0.75 0.390625,1.109375 0.40625,0.34375 1.015623,0.34375 0.640625,0 1.125,-0.3125 0.5,-0.3125 0.84375,-0.734375 z M 38.66021,14.111274 h -4.40625 v -0.59375 q 0.21875,-0.03125 0.46875,-0.04687 0.25,-0.01563 0.40625,-0.0625 0.265625,-0.09375 0.375,-0.296875 0.125,-0.203125 0.125,-0.53125 V 7.9550271 q 0,-0.953125 -0.453125,-1.46875 -0.4375,-0.515625 -1.09375,-0.515625 -0.484375,0 -0.890625,0.15625 -0.390625,0.140625 -0.703125,0.359375 -0.296875,0.203125 -0.484375,0.453125 -0.171875,0.234375 -0.25,0.390625 v 5.1562469 q 0,0.3125 0.125,0.515625 0.125,0.203125 0.390625,0.3125 0.1875,0.09375 0.40625,0.140625 0.21875,0.03125 0.46875,0.0625 v 0.59375 h -4.40625 v -0.59375 q 0.203125,-0.03125 0.421875,-0.04687 0.234375,-0.01563 0.390625,-0.0625 0.265625,-0.09375 0.390625,-0.296875 0.125,-0.203125 0.125,-0.53125 V 7.0331521 q 0,-0.3125 -0.140625,-0.5625 -0.125,-0.265625 -0.375,-0.4375 -0.171875,-0.109375 -0.40625,-0.15625 -0.234375,-0.046875 -0.5,-0.0625 v -0.59375 l 2.984375,-0.203125 0.125,0.125 v 1.265625 h 0.04687 q 0.21875,-0.21875 0.546875,-0.515625 0.328125,-0.3125 0.609375,-0.5 0.34375,-0.21875 0.8125,-0.359375 0.46875,-0.15625 1.046875,-0.15625 1.296875,0 1.921875,0.8125 0.625,0.8125 0.625,2.140625 v 4.6718719 q 0,0.328125 0.09375,0.53125 0.109375,0.1875 0.375,0.296875 0.21875,0.09375 0.375,0.125 0.171875,0.03125 0.453125,0.0625 z m 8.803741,-0.921875 q 0.359375,0.34375 0.5625,0.78125 0.21875,0.4375 0.21875,1.078125 0,0.640625 -0.28125,1.203125 -0.28125,0.578125 -0.859375,1 -0.609375,0.4375 -1.46875,0.671875 -0.84375,0.234375 -2.078125,0.234375 -2.046875,0 -3.0625,-0.609375 -1.015625,-0.59375 -1.015625,-1.734375 0,-0.921875 0.734375,-1.46875 0.734375,-0.53125 1.859375,-0.578125 v -0.125 q -0.265625,-0.09375 -0.5625,-0.203125 -0.296875,-0.125 -0.5,-0.296875 -0.234375,-0.1875 -0.390625,-0.4375 -0.140625,-0.265625 -0.140625,-0.65625 0,-0.484375 0.34375,-0.890625 0.34375,-0.40625 1.03125,-0.6875 v -0.140625 q -0.875,-0.406249 -1.359375,-1.0468719 -0.484375,-0.640625 -0.484375,-1.5 0,-1.265625 0.953125,-2.078125 0.953125,-0.828125 2.4375,-0.828125 0.40625,0 0.8125,0.078125 0.40625,0.078125 0.828125,0.203125 h 3.140625 v 0.875 h -2.125 v 0.0625 q 0.34375,0.390625 0.5,0.875 0.171875,0.46875 0.171875,0.921875 0,1.1875 -0.96875,2.015623 -0.953125,0.8124989 -2.234375,0.8124989 h -1.09375 q -0.21875,0.0625 -0.453125,0.265625 -0.21875,0.1875 -0.21875,0.515625 0,0.328125 0.1875,0.515625 0.203125,0.171875 0.46875,0.234375 0.265625,0.07813 0.609375,0.09375 0.359375,0.01563 0.734375,0.03125 0.40625,0 1.09375,0.04687 0.703125,0.04687 0.984375,0.0625 0.421875,0.01563 0.84375,0.203125 0.421875,0.171875 0.78125,0.5 z m -2.46875,-5.3437469 q 0,-1.0625 -0.4375,-1.6875 -0.421875,-0.640625 -1.203125,-0.640625 -0.4375,0 -0.75,0.1875 -0.296875,0.171875 -0.484375,0.5 -0.1875,0.296875 -0.265625,0.71875 -0.07813,0.421875 -0.07813,0.875 0,1.015625 0.4375,1.65625 0.453125,0.6249969 1.15625,0.6249969 0.78125,0 1.203125,-0.6249969 0.421875,-0.640625 0.421875,-1.609375 z m 1.75,7.5468719 q 0,-0.515625 -0.234375,-0.84375 -0.234375,-0.328125 -0.71875,-0.453125 -0.25,-0.03125 -1.046875,-0.07813 -0.796875,-0.04687 -1.84375,-0.04687 -0.984375,0.1875 -1.40625,0.640625 -0.40625,0.453125 -0.40625,1.171875 0,0.3125 0.140625,0.59375 0.140625,0.296875 0.46875,0.546875 0.328125,0.234375 0.859375,0.390625 0.53125,0.15625 1.3125,0.15625 1.34375,0 2.109375,-0.515625 0.765625,-0.515625 0.765625,-1.5625 z m 8.45433,-5.6874977 q 0.359375,0.3281227 0.5625,0.7656227 0.203125,0.421875 0.203125,1.046875 0,1.25 -0.9375,2.046875 -0.921875,0.78125 -2.40625,0.78125 -0.796875,0 -1.453125,-0.28125 -0.65625,-0.28125 -0.9375,-0.515625 l -0.1875,0.59375 h -0.6875 l -0.07813,-3.125 h 0.625 q 0.0625,0.359375 0.296875,0.828125 0.25,0.46875 0.578125,0.859375 0.359375,0.390625 0.859375,0.671875 0.5,0.265625 1.109375,0.265625 0.875,0 1.34375,-0.390625 0.484375,-0.390625 0.484375,-1.140625 0,-0.375 -0.15625,-0.65625 -0.140625,-0.28125 -0.4375,-0.484375 -0.296875,-0.21875 -0.734375,-0.375 -0.4375,-0.171875 -0.984375,-0.34375 -0.421875,-0.125 -0.953125,-0.3437489 -0.515625,-0.2187488 -0.890625,-0.531248 -0.40625,-0.3125 -0.65625,-0.765625 -0.25,-0.46875 -0.25,-1.109375 0,-1.09375 0.8125,-1.859375 0.828125,-0.765625 2.203125,-0.765625 0.53125,0 1.078125,0.140625 0.546875,0.125 0.890625,0.328125 l 0.21875,-0.484375 h 0.65625 l 0.125,2.890625 h -0.625 q -0.1875,-0.96875 -0.828125,-1.5625 -0.625,-0.609375 -1.53125,-0.609375 -0.75,0 -1.1875,0.375 -0.421875,0.375 -0.421875,0.890625 0,0.421875 0.140625,0.703125 0.140625,0.265625 0.421875,0.453125 0.28125,0.171875 0.6875,0.34375 0.421875,0.15625 1.03125,0.359375 0.59375,0.1875 1.125,0.453125 0.53125,0.25 0.890625,0.5468742 z m 10.10878,2.2968727 q -0.5625,1.078125 -1.515625,1.71875 -0.953125,0.625 -2.171875,0.625 -1.09375,0 -1.90625,-0.375 -0.8125,-0.390625 -1.34375,-1.046875 -0.53125,-0.65625 -0.796875,-1.53125 -0.25,-0.875 -0.25,-1.8437469 0,-0.875 0.28125,-1.71875 0.28125,-0.84375 0.8125,-1.515625 0.515625,-0.640625 1.28125,-1.03125 0.78125,-0.40625 1.734375,-0.40625 0.984375,0 1.6875,0.3125 0.703125,0.296875 1.140625,0.84375 0.40625,0.515625 0.609375,1.203125 0.21875,0.6875 0.21875,1.5 v 0.609375 h -5.953125 q 0,0.8749969 0.171875,1.5937469 0.171875,0.71875 0.53125,1.265625 0.359375,0.53125 0.921875,0.84375 0.578125,0.296875 1.375,0.296875 0.8125,0 1.390625,-0.375 0.59375,-0.375 1.140625,-1.359375 z M 63.292686,8.5800271 q 0,-0.515625 -0.09375,-1.09375 -0.07813,-0.59375 -0.265625,-0.984375 -0.21875,-0.421875 -0.59375,-0.671875 -0.359375,-0.265625 -0.921875,-0.265625 -0.953125,0 -1.59375,0.796875 -0.640625,0.796875 -0.6875,2.21875 z m 11.799652,0.953125 q 0,0.9374969 -0.296875,1.8593719 -0.296875,0.921875 -0.859375,1.546875 -0.625,0.734375 -1.453125,1.09375 -0.828125,0.34375 -1.859375,0.34375 -0.859375,0 -1.640625,-0.3125 -0.765625,-0.328125 -1.359375,-0.953125 -0.59375,-0.609375 -0.953125,-1.484375 -0.34375,-0.875 -0.34375,-1.9687477 0,-2.1093742 1.21875,-3.4374992 1.234375,-1.34375 3.21875,-1.34375 1.875,0 3.09375,1.265625 1.234375,1.265625 1.234375,3.390625 z m -1.875,0.015625 q 0,-0.6875 -0.140625,-1.4375 -0.140625,-0.765625 -0.40625,-1.296875 -0.296875,-0.5625 -0.78125,-0.90625 -0.46875,-0.34375 -1.140625,-0.34375 -0.703125,0 -1.203125,0.34375 -0.5,0.34375 -0.8125,0.953125 -0.28125,0.546875 -0.40625,1.265625 -0.125,0.703125 -0.125,1.375 0,0.8749969 0.140625,1.6249969 0.15625,0.734375 0.453125,1.3125 0.3125,0.59375 0.78125,0.921875 0.46875,0.328125 1.171875,0.328125 1.125,0 1.796875,-1.09375 0.671875,-1.109375 0.671875,-3.0468719 z m 12.69751,4.5624969 h -2.71875 q -0.703125,-1.03125 -1.515625,-2.203125 -0.8125,-1.171875 -1.6875,-2.2812473 l -0.75,0.6874973 v 2.140625 q 0,0.328125 0.125,0.546875 0.125,0.203125 0.390625,0.3125 0.21875,0.09375 0.40625,0.140625 0.203125,0.03125 0.46875,0.0625 v 0.59375 h -4.40625 v -0.59375 q 0.203125,-0.03125 0.421875,-0.04687 0.234375,-0.03125 0.390625,-0.0625 0.265625,-0.09375 0.390625,-0.296875 0.125,-0.203125 0.125,-0.53125 V 2.1425271 q 0,-0.34375 -0.140625,-0.640625 -0.140625,-0.296875 -0.375,-0.4375 -0.1875,-0.15625004 -0.59375,-0.20312502 -0.40625,-0.046875 -0.65625,-0.0625 V 0.22065214 l 3.328125,-0.203125 0.125,0.125 V 9.6425263 q 0.71875,-0.7031242 1.53125,-1.5156242 0.828125,-0.828125 1.40625,-1.453125 0.0625,-0.09375 0.140625,-0.21875 0.09375,-0.125 0.09375,-0.21875 0,-0.234375 -0.390625,-0.359375 -0.390625,-0.125 -0.765625,-0.171875 v -0.578125 h 3.953125 v 0.5625 q -0.765625,0.234375 -1.359375,0.578125 -0.578125,0.34375 -0.890625,0.609375 -0.21875,0.1875 -0.625,0.59375 -0.390625,0.40625 -1.109375,1.078125 0.75,0.921875 1.671875,2.2031219 0.9375,1.28125 1.375,1.859375 0.390625,0.53125 0.703125,0.703125 0.328125,0.15625 0.9375,0.203125 z m 13.758743,1.078125 q -0.90625,0.796875 -2.171875,1.28125 -1.25,0.484375 -2.78125,0.484375 -1.375,0 -2.703125,-0.4375 -1.328125,-0.4375 -2.40625,-1.34375 -1.046875,-0.90625 -1.703125,-2.234375 -0.640625,-1.34375 -0.640625,-3.1718731 0,-1.5624988 0.578125,-3.0312488 0.59375,-1.46875 1.671875,-2.609375 1.046875,-1.125 2.59375,-1.8125 1.546875,-0.6875 3.359375,-0.6875 1.578125,0 2.734375,0.515625 1.15625,0.5 1.890589,1.328125 0.75,0.828125 1.10938,1.890625 0.375,1.0625 0.375,2.21875 0,2.2187488 -1.21875,3.7656219 -1.218719,1.53125 -3.093719,1.53125 -0.765625,0 -1.3125,-0.390625 -0.53125,-0.390625 -0.59375,-1.09375 l -0.0625,-0.01563 q -0.4375,0.671875 -1,1.0625 -0.5625,0.390625 -1.140625,0.390625 -0.375,0 -0.765625,-0.109375 -0.375,-0.125 -0.6875,-0.40625 -0.296875,-0.3125 -0.484375,-0.78125 -0.171875,-0.484375 -0.171875,-1.203125 0,-0.6718727 0.3125,-1.4843719 0.3125,-0.828125 0.828125,-1.578125 0.515625,-0.75 1.34375,-1.296875 0.828125,-0.5625 1.78125,-0.5625 0.5,0 0.890625,0.28125 0.40625,0.28125 0.5,0.84375 h 0.04687 l 0.40625,-1.015625 h 1.34375 l -1.71875,4.8906219 q -0.07813,0.234375 -0.125,0.53125 -0.04687,0.296875 -0.04687,0.46875 0,0.46875 0.234375,0.6875 0.234375,0.203125 0.609375,0.203125 1.40625,0 2.343756,-1.328125 0.953083,-1.3281227 0.953083,-3.4843719 0,-1.078125 -0.34375,-1.984375 -0.32812,-0.921875 -1.015589,-1.625 -0.671875,-0.703125 -1.6875,-1.09375 -1,-0.40625 -2.296875,-0.40625 -1.25,0 -2.421875,0.484375 -1.171875,0.484375 -2.140625,1.421875 -0.9375,0.90625 -1.53125,2.265625 -0.578125,1.359375 -0.578125,3.0781246 0,1.6406223 0.453125,2.8906223 0.46875,1.25 1.296875,2.109375 0.8125,0.8125 1.90625,1.21875 1.109375,0.421875 2.390625,0.421875 1.453125,0 2.578125,-0.40625 1.125,-0.390625 2.03125,-1.125 z M 96.501716,7.3456521 q -0.125,-0.734375 -0.40625,-1.0625 -0.28125,-0.34375 -0.828125,-0.34375 -0.578125,0 -1.078125,0.46875 -0.484375,0.46875 -0.8125,1.109375 -0.359375,0.6875 -0.5625,1.484375 -0.1875,0.7968738 -0.1875,1.4687469 0,0.765625 0.1875,1.1875 0.1875,0.40625 0.609375,0.40625 0.625,0 1.109375,-0.421875 0.5,-0.421875 0.921875,-1.21875 z M 111.4217,13.189399 q 0.35937,0.34375 0.5625,0.78125 0.21875,0.4375 0.21875,1.078125 0,0.640625 -0.28125,1.203125 -0.28125,0.578125 -0.85938,1 -0.60937,0.4375 -1.46875,0.671875 -0.84375,0.234375 -2.07812,0.234375 -2.04688,0 -3.0625,-0.609375 -1.01563,-0.59375 -1.01563,-1.734375 0,-0.921875 0.73438,-1.46875 0.73437,-0.53125 1.85937,-0.578125 v -0.125 q -0.26562,-0.09375 -0.5625,-0.203125 -0.29687,-0.125 -0.5,-0.296875 -0.23437,-0.1875 -0.39062,-0.4375 -0.14063,-0.265625 -0.14063,-0.65625 0,-0.484375 0.34375,-0.890625 0.34375,-0.40625 1.03125,-0.6875 v -0.140625 q -0.875,-0.406249 -1.35937,-1.0468719 -0.48438,-0.640625 -0.48438,-1.5 0,-1.265625 0.95313,-2.078125 0.95312,-0.828125 2.4375,-0.828125 0.40625,0 0.8125,0.078125 0.40625,0.078125 0.82812,0.203125 h 3.14063 v 0.875 h -2.125 v 0.0625 q 0.34375,0.390625 0.5,0.875 0.17187,0.46875 0.17187,0.921875 0,1.1875 -0.96875,2.015623 -0.95312,0.8124989 -2.23437,0.8124989 h -1.09375 q -0.21875,0.0625 -0.45313,0.265625 -0.21875,0.1875 -0.21875,0.515625 0,0.328125 0.1875,0.515625 0.20313,0.171875 0.46875,0.234375 0.26563,0.07813 0.60938,0.09375 0.35937,0.01563 0.73437,0.03125 0.40625,0 1.09375,0.04687 0.70313,0.04687 0.98438,0.0625 0.42187,0.01563 0.84375,0.203125 0.42187,0.171875 0.78125,0.5 z m -2.46875,-5.3437469 q 0,-1.0625 -0.4375,-1.6875 -0.42188,-0.640625 -1.20313,-0.640625 -0.4375,0 -0.75,0.1875 -0.29687,0.171875 -0.48437,0.5 -0.1875,0.296875 -0.26563,0.71875 -0.0781,0.421875 -0.0781,0.875 0,1.015625 0.4375,1.65625 0.45312,0.6249969 1.15625,0.6249969 0.78125,0 1.20312,-0.6249969 0.42188,-0.640625 0.42188,-1.609375 z m 1.75,7.5468719 q 0,-0.515625 -0.23438,-0.84375 -0.23437,-0.328125 -0.71875,-0.453125 -0.25,-0.03125 -1.04687,-0.07813 -0.79688,-0.04687 -1.84375,-0.04687 -0.98438,0.1875 -1.40625,0.640625 -0.40625,0.453125 -0.40625,1.171875 0,0.3125 0.14062,0.59375 0.14063,0.296875 0.46875,0.546875 0.32813,0.234375 0.85938,0.390625 0.53125,0.15625 1.3125,0.15625 1.34375,0 2.10937,-0.515625 0.76563,-0.515625 0.76563,-1.5625 z m 11.03245,-1.4375 q -0.4375,0.140625 -0.76562,0.234375 -0.3125,0.109375 -0.73438,0.109375 -0.70312,0 -1.125,-0.328125 -0.42187,-0.34375 -0.54687,-0.984375 h -0.0469 q -0.59375,0.65625 -1.28125,1.015625 -0.67187,0.34375 -1.625,0.34375 -1.01562,0 -1.67187,-0.625 -0.64063,-0.625 -0.64063,-1.625 0,-0.515625 0.14063,-0.921875 0.14062,-0.421875 0.4375,-0.75 0.23437,-0.265625 0.59375,-0.4687492 0.375,-0.2187489 0.70312,-0.3593731 0.42188,-0.1562496 1.67188,-0.5624996 1.25,-0.421875 1.6875,-0.65625 v -0.90625 q 0,-0.125 -0.0625,-0.453125 -0.0469,-0.34375 -0.20313,-0.640625 -0.1875,-0.34375 -0.51562,-0.59375 -0.32813,-0.25 -0.9375,-0.25 -0.42188,0 -0.78125,0.140625 -0.35938,0.140625 -0.51563,0.296875 0,0.1875 0.0937,0.546875 0.0937,0.359375 0.0937,0.65625 0,0.3125 -0.29687,0.578125 -0.28125,0.265625 -0.79688,0.265625 -0.45312,0 -0.67187,-0.3125 -0.20313,-0.328125 -0.20313,-0.734375 0,-0.421875 0.29688,-0.796875 0.29687,-0.390625 0.76562,-0.6875 0.40625,-0.25 0.98438,-0.421875 0.59375,-0.1875 1.14062,-0.1875 0.76563,0 1.32813,0.109375 0.57812,0.09375 1.04687,0.4375 0.46875,0.34375 0.70313,0.921875 0.23437,0.578125 0.23437,1.484375 0,1.3125 -0.0312,2.3281219 -0.0156,1 -0.0156,2.1875 0,0.359375 0.125,0.5625 0.125,0.203125 0.375,0.359375 0.14062,0.07813 0.4375,0.09375 0.29687,0 0.60937,0 z m -3.1875,-4.8124969 q -0.78125,0.21875 -1.35937,0.4374996 -0.57813,0.2187492 -1.07813,0.5468723 -0.45312,0.3125 -0.71875,0.734375 -0.26562,0.421875 -0.26562,1.015625 0,0.75 0.39062,1.109375 0.40625,0.34375 1.01563,0.34375 0.64062,0 1.125,-0.3125 0.5,-0.3125 0.84375,-0.734375 z m 9.61975,4.5781219 q -0.59375,0.25 -1.125,0.40625 -0.51562,0.171875 -1.28125,0.171875 -1.14062,0 -1.60937,-0.5625 -0.45313,-0.578125 -0.45313,-1.609375 V 6.0331521 h -1.60937 v -0.875 h 1.65625 v -2.78125 h 1.65625 v 2.78125 h 2.57812 v 0.875 h -2.5625 v 5.0312469 q 0,0.5625 0.0312,0.9375 0.0469,0.375 0.20313,0.65625 0.14062,0.265625 0.4375,0.40625 0.29687,0.140625 0.78125,0.140625 0.23437,0 0.67187,-0.04687 0.4375,-0.04687 0.625,-0.109375 z m 8.87792,-1.71875 q -0.5625,1.078125 -1.51563,1.71875 -0.95312,0.625 -2.17187,0.625 -1.09375,0 -1.90625,-0.375 -0.8125,-0.390625 -1.34375,-1.046875 -0.53125,-0.65625 -0.79688,-1.53125 -0.25,-0.875 -0.25,-1.8437469 0,-0.875 0.28125,-1.71875 0.28125,-0.84375 0.8125,-1.515625 0.51563,-0.640625 1.28125,-1.03125 0.78125,-0.40625 1.73438,-0.40625 0.98437,0 1.6875,0.3125 0.70312,0.296875 1.14062,0.84375 0.40625,0.515625 0.60938,1.203125 0.21875,0.6875 0.21875,1.5 v 0.609375 h -5.95313 q 0,0.8749969 0.17188,1.5937469 0.17187,0.71875 0.53125,1.265625 0.35937,0.53125 0.92187,0.84375 0.57813,0.296875 1.375,0.296875 0.8125,0 1.39063,-0.375 0.59375,-0.375 1.14062,-1.359375 z m -2.01563,-3.4218719 q 0,-0.515625 -0.0937,-1.09375 -0.0781,-0.59375 -0.26562,-0.984375 -0.21875,-0.421875 -0.59375,-0.671875 -0.35938,-0.265625 -0.92188,-0.265625 -0.95312,0 -1.59375,0.796875 -0.64062,0.796875 -0.6875,2.21875 z m 7.2059,5.7656219 q -1.95312,0 -3.0625,-1.28125 -1.09375,-1.296875 -1.09375,-3.4843723 0,-0.9374996 0.29688,-1.7656246 0.29687,-0.828125 0.85937,-1.5 0.53125,-0.640625 1.34375,-1.03125 0.8125,-0.40625 1.76563,-0.40625 1.32812,0 2.15625,0.640625 0.82812,0.625 0.82812,1.71875 0,0.453125 -0.21875,0.8125 -0.21875,0.34375 -0.71875,0.34375 -0.53125,0 -0.82812,-0.265625 -0.29688,-0.28125 -0.29688,-0.625 0,-0.40625 0.10938,-0.828125 0.10937,-0.4375 0.125,-0.640625 -0.17188,-0.28125 -0.5,-0.375 -0.3125,-0.09375 -0.6875,-0.09375 -0.4375,0 -0.84375,0.1875 -0.39063,0.171875 -0.76563,0.6875 -0.32812,0.453125 -0.54687,1.234375 -0.20313,0.765625 -0.20313,1.84375 0,1.6874969 0.75,2.7656219 0.75,1.0625 1.96875,1.0625 0.89063,0 1.48438,-0.421875 0.59375,-0.4375 1.10937,-1.296875 l 0.57813,0.390625 q -0.59375,1.078125 -1.57813,1.703125 -0.98437,0.625 -2.03125,0.625 z m 14.06559,-0.234375 h -4.40625 v -0.59375 q 0.21875,-0.03125 0.46875,-0.04687 0.25,-0.01563 0.42187,-0.0625 0.25,-0.09375 0.375,-0.296875 0.125,-0.203125 0.125,-0.53125 V 7.9550271 q 0,-0.953125 -0.45312,-1.46875 -0.45313,-0.515625 -1.09375,-0.515625 -0.48438,0 -0.89063,0.15625 -0.39062,0.140625 -0.71875,0.359375 -0.3125,0.234375 -0.48437,0.46875 -0.15625,0.21875 -0.25,0.375 v 5.1562469 q 0,0.3125 0.125,0.515625 0.125,0.203125 0.39062,0.3125 0.1875,0.09375 0.40625,0.140625 0.21875,0.03125 0.46875,0.0625 v 0.59375 h -4.40625 v -0.59375 q 0.20313,-0.03125 0.42188,-0.04687 0.23437,-0.03125 0.39062,-0.0625 0.26563,-0.09375 0.39063,-0.296875 0.125,-0.203125 0.125,-0.53125 V 2.1269021 q 0,-0.3125 -0.14063,-0.625 -0.14062,-0.3125 -0.375,-0.46875 -0.15625,-0.10937504 -0.57812,-0.15625002 -0.40625,-0.0625 -0.67188,-0.078125 V 0.22065214 l 3.32813,-0.203125 0.125,0.125 V 6.4081521 h 0.0469 q 0.29688,-0.296875 0.54688,-0.53125 0.25,-0.234375 0.64062,-0.484375 0.34375,-0.21875 0.8125,-0.359375 0.46875,-0.15625 1.0625,-0.15625 1.20313,0 1.84375,0.765625 0.64063,0.765625 0.64063,2.1875 v 4.6718719 q 0,0.328125 0.10937,0.53125 0.125,0.1875 0.39063,0.296875 0.20312,0.07813 0.375,0.125 0.17187,0.03125 0.4375,0.0625 z m 4.23352,-1.046875 q 0,0.515625 -0.375,0.875 -0.35938,0.359375 -0.875,0.359375 -0.51563,0 -0.89063,-0.359375 -0.35937,-0.359375 -0.35937,-0.875 0,-0.515625 0.35937,-0.875 0.375,-0.375 0.89063,-0.375 0.51562,0 0.875,0.375 0.375,0.359375 0.375,0.875 z m 9.88781,-1.0625 q -0.5625,1.078125 -1.51562,1.71875 -0.95313,0.625 -2.17188,0.625 -1.09375,0 -1.90625,-0.375 -0.8125,-0.390625 -1.34375,-1.046875 -0.53125,-0.65625 -0.79687,-1.53125 -0.25,-0.875 -0.25,-1.8437469 0,-0.875 0.28125,-1.71875 0.28125,-0.84375 0.8125,-1.515625 0.51562,-0.640625 1.28125,-1.03125 0.78125,-0.40625 1.73437,-0.40625 0.98438,0 1.6875,0.3125 0.70313,0.296875 1.14063,0.84375 0.40625,0.515625 0.60937,1.203125 0.21875,0.6875 0.21875,1.5 v 0.609375 h -5.95312 q 0,0.8749969 0.17187,1.5937469 0.17188,0.71875 0.53125,1.265625 0.35938,0.53125 0.92188,0.84375 0.57812,0.296875 1.375,0.296875 0.8125,0 1.39062,-0.375 0.59375,-0.375 1.14063,-1.359375 z m -2.01562,-3.4218719 q 0,-0.515625 -0.0937,-1.09375 -0.0781,-0.59375 -0.26563,-0.984375 -0.21875,-0.421875 -0.59375,-0.671875 -0.35937,-0.265625 -0.92187,-0.265625 -0.95313,0 -1.59375,0.796875 -0.64063,0.796875 -0.6875,2.21875 z m 12.8934,5.3749969 -3.14062,0.1875 -0.14063,-0.125 v -0.828125 l -0.0625,-0.03125 q -0.48437,0.53125 -1.1875,0.875 -0.6875,0.328125 -1.42187,0.328125 -0.76563,0 -1.48438,-0.328125 -0.71875,-0.34375 -1.23437,-0.96875 -0.54688,-0.625 -0.85938,-1.5 -0.3125,-0.890625 -0.3125,-1.9687473 0,-0.9687496 0.32813,-1.8437496 0.34375,-0.875 0.9375,-1.53125 0.5625,-0.609375 1.35937,-0.96875 0.8125,-0.375 1.64063,-0.375 0.64062,0 1.23437,0.171875 0.60938,0.15625 1.04688,0.40625 v -3.125 q 0,-0.390625 -0.125,-0.703125 -0.125,-0.3125 -0.35938,-0.484375 -0.25,-0.17187504 -0.6875,-0.25000002 -0.42187,-0.078125 -0.9375,-0.10937498 V 0.22065214 l 3.67188,-0.203125 0.14062,0.125 V 12.267524 q 0,0.3125 0.125,0.546875 0.125,0.21875 0.35938,0.375 0.17187,0.109375 0.5,0.140625 0.32812,0.01563 0.60937,0.03125 z m -3.29687,-1.578125 V 7.1112771 q -0.0781,-0.234375 -0.23438,-0.5 -0.15625,-0.28125 -0.40625,-0.5 -0.26562,-0.234375 -0.625,-0.375 -0.35937,-0.15625 -0.82812,-0.15625 -0.54688,0 -1.01563,0.28125 -0.45312,0.28125 -0.8125,0.8125 -0.32812,0.5 -0.53125,1.296875 -0.1875,0.78125 -0.1875,1.7343742 0,0.7656227 0.14063,1.3906227 0.14062,0.625 0.5,1.171875 0.3125,0.5 0.8125,0.8125 0.5,0.3125 1.17187,0.3125 0.73438,0 1.20313,-0.3125 0.48437,-0.328125 0.8125,-0.703125 z m 13.79089,1.578125 -2.92187,0.1875 -0.14063,-0.125 v -1.140625 h -0.0469 q -0.21875,0.234375 -0.5,0.5 -0.26563,0.25 -0.625,0.46875 -0.40625,0.234375 -0.79688,0.359375 -0.375,0.140625 -1.07812,0.140625 -1.1875,0 -1.8125,-0.78125 -0.625,-0.78125 -0.625,-2.265625 V 7.0019021 q 0,-0.328125 -0.125,-0.546875 -0.125,-0.234375 -0.35938,-0.390625 -0.17187,-0.109375 -0.42187,-0.15625 -0.23438,-0.0625 -0.51563,-0.078125 v -0.59375 l 3,-0.21875 0.14063,0.125 v 6.2499969 q 0,0.96875 0.4375,1.46875 0.4375,0.484375 1.04687,0.484375 0.5,0 0.89063,-0.15625 0.39062,-0.15625 0.65625,-0.359375 0.25,-0.1875 0.4375,-0.40625 0.1875,-0.21875 0.28125,-0.40625 V 6.9394021 q 0,-0.3125 -0.125,-0.53125 -0.125,-0.234375 -0.35938,-0.40625 -0.15625,-0.109375 -0.48437,-0.125 -0.32813,-0.03125 -0.71875,-0.046875 v -0.59375 l 3.25,-0.21875 0.14062,0.125 v 7.1406219 q 0,0.3125 0.125,0.53125 0.14063,0.21875 0.35938,0.375 0.17187,0.09375 0.39062,0.125 0.23438,0.03125 0.5,0.04687 z"
       fill-rule="nonzero"
       id="path9" />
  </g>
</svg>
