<?xml version="1.0" encoding="UTF-8" standalone="no"?>
<svg
   version="1.1"
   viewBox="0 0 202.29597 16.860005"
   fill="none"
   stroke="none"
   stroke-linecap="square"
   stroke-miterlimit="10"
   id="svg13"
   sodipodi:docname="email_consolas.svg"
   width="202.29601"
   height="16.860001"
   inkscape:version="1.1 (c68e22c387, 2021-05-23)"
   xmlns:inkscape="http://www.inkscape.org/namespaces/inkscape"
   xmlns:sodipodi="http://sodipodi.sourceforge.net/DTD/sodipodi-0.dtd"
   xmlns="http://www.w3.org/2000/svg"
   xmlns:svg="http://www.w3.org/2000/svg">
  <defs
     id="defs17" />
  <sodipodi:namedview
     id="namedview15"
     pagecolor="#ffffff"
     bordercolor="#666666"
     borderopacity="1.0"
     inkscape:pageshadow="2"
     inkscape:pageopacity="0.0"
     inkscape:pagecheckerboard="0"
     showgrid="false"
     inkscape:zoom="64"
     inkscape:cx="200.99219"
     inkscape:cy="8.4375"
     inkscape:window-width="1920"
     inkscape:window-height="1011"
     inkscape:window-x="0"
     inkscape:window-y="0"
     inkscape:window-maximized="1"
     inkscape:current-layer="g11"
     inkscape:lockguides="false" />
  <clipPath
     id="p.0">
    <path
       d="M 0,0 H 224.67717 V 100.87927 H 0 Z"
       clip-rule="nonzero"
       id="path2" />
  </clipPath>
  <g
     clip-path="url(#p.0)"
     id="g11">
    <path
       fill="#000000"
       fill-opacity="0"
       d="M 0,0 H 224.67717 V 100.87927 H 0 Z"
       fill-rule="evenodd"
       id="path5" />
    <path
       fill="#000000"
       fill-opacity="0"
       d="M 0.02362205,29.430447 H 224.65355 v 42.01575 H 0.02362205 Z"
       fill-rule="evenodd"
       id="path7" />
    <path
       fill="#000000"
       d="m 7.1438137,12.666293 q -0.625,0.25 -1.28125,0.359375 -0.640625,0.109375 -1.328125,0.109375 -2.171875,0 -3.34375,-1.171875 -1.17187501,-1.171875 -1.17187501,-3.4375003 0,-1.078125 0.32812495,-1.953125 0.34375005,-0.890625 0.95312506,-1.515625 0.609375,-0.640625 1.453125,-0.984375 0.859375,-0.34375 1.875,-0.34375 0.71875,0 1.328125,0.109375 0.625,0.09375 1.1875,0.328125 v 1.515625 q -0.59375,-0.3125 -1.21875,-0.453125 -0.609375,-0.140625 -1.265625,-0.140625 -0.609375,0 -1.15625,0.234375 -0.53125,0.234375 -0.9375,0.671875 -0.40625,0.421875 -0.65625,1.0625 -0.234375,0.625 -0.234375,1.421875 0,1.6562503 0.796875,2.4843753 0.8125,0.8125 2.25,0.8125 0.640625,0 1.25,-0.140625 0.609375,-0.140625 1.171875,-0.4375 z m 10.5072913,0.34375 h -1.59375 V 7.1662927 q 0,-1.046875 -0.390625,-1.5625 -0.390625,-0.53125 -1.140625,-0.53125 -0.3125,0 -0.59375,0.09375 -0.28125,0.07813 -0.578125,0.296875 -0.296875,0.203125 -0.65625,0.578125 -0.359375,0.359375 -0.8125,0.90625 V 13.010043 H 10.29173 V 0.13504284 h 1.59375 V 3.8694177 l -0.0625,1.4375 q 0.375,-0.453125 0.734375,-0.75 0.359375,-0.3125 0.71875,-0.5 0.359375,-0.1875 0.734375,-0.265625 0.375,-0.09375 0.78125,-0.09375 1.359375,0 2.109375,0.84375 0.75,0.828125 0.75,2.5 z m 8.772917,0 -0.03125,-1.234375 q -0.75,0.75 -1.515625,1.078125 -0.765625,0.3125 -1.625,0.3125 -0.78125,0 -1.34375,-0.1875 -0.546873,-0.203125 -0.906248,-0.546875 -0.359375,-0.359375 -0.53125,-0.828125 -0.15625,-0.484375 -0.15625,-1.03125 0,-1.3750001 1.015625,-2.1562503 1.031248,-0.78125 3.031248,-0.78125 h 1.890625 v -0.796875 q 0,-0.8125 -0.515625,-1.296875 -0.515625,-0.5 -1.578125,-0.5 -0.78125,0 -1.53125,0.1875 -0.75,0.171875 -1.546873,0.484375 v -1.4375 q 0.296875,-0.109375 0.656248,-0.203125 0.375,-0.109375 0.78125,-0.1875 0.40625,-0.07813 0.859375,-0.125 0.453125,-0.0625 0.90625,-0.0625 0.828125,0 1.484375,0.1875 0.671875,0.171875 1.125,0.546875 0.46875,0.375 0.703125,0.953125 0.25,0.5625 0.25,1.328125 V 13.010043 Z M 26.252147,8.8537927 h -2.015625 q -0.578125,0 -1.015625,0.1250001 -0.421875,0.109375 -0.703125,0.3281251 -0.265625,0.2187501 -0.40625,0.5312501 -0.125,0.296875 -0.125,0.671875 0,0.265625 0.07813,0.515625 0.07813,0.234375 0.265625,0.421875 0.1875,0.1875 0.46875,0.296875 0.296875,0.109375 0.71875,0.109375 0.546875,0 1.25,-0.328125 0.703125,-0.34375 1.484375,-1.0625 z m 4.554169,-4.984375 h 1.421875 l 0.0625,1.46875 q 0.390625,-0.46875 0.765625,-0.78125 0.375,-0.3125 0.734375,-0.5 0.359375,-0.203125 0.734375,-0.28125 0.375,-0.07813 0.78125,-0.07813 1.40625,0 2.125,0.84375 0.734375,0.828125 0.734375,2.5 v 5.9687503 h -1.59375 V 7.1662877 q 0,-1.078125 -0.40625,-1.578125 -0.390625,-0.515625 -1.1875,-0.515625 -0.28125,0 -0.5625,0.09375 -0.28125,0.07813 -0.578125,0.296875 -0.296875,0.203125 -0.65625,0.578125 -0.34375,0.359375 -0.78125,0.90625 v 6.0625003 h -1.59375 z m 16.851044,1.28125 q 0.25,0.328125 0.390625,0.75 0.140625,0.421875 0.140625,0.921875 0,0.703125 -0.265625,1.296875 -0.25,0.578125 -0.734375,1.0000001 -0.46875,0.4218752 -1.125,0.6562502 -0.65625,0.234375 -1.453125,0.234375 -0.578125,0 -1.078125,-0.125 -0.5,-0.125 -0.78125,-0.3125 -0.1875,0.265625 -0.3125,0.5 -0.109375,0.21875 -0.109375,0.5 0,0.34375 0.328125,0.578125 0.34375,0.21875 0.890625,0.234375 l 2.40625,0.09375 q 0.671875,0.01563 1.25,0.171875 0.59375,0.15625 1,0.453125 0.421875,0.28125 0.640625,0.71875 0.234375,0.421875 0.234375,0.984375 0,0.609375 -0.265625,1.15625 -0.25,0.546875 -0.8125,0.953125 -0.546875,0.421875 -1.390625,0.671875 -0.84375,0.25 -2.015625,0.25 -1.109375,0 -1.890625,-0.1875 -0.78125,-0.171875 -1.28125,-0.484375 -0.5,-0.3125 -0.734375,-0.75 -0.21875,-0.421875 -0.21875,-0.953125 0,-0.65625 0.296875,-1.15625 0.3125,-0.5 0.96875,-0.96875 -0.234375,-0.109375 -0.40625,-0.265625 -0.171875,-0.171875 -0.28125,-0.359375 -0.109375,-0.203125 -0.171875,-0.421875 -0.04687,-0.21875 -0.04687,-0.4375 0,-0.578125 0.265625,-1.0625 0.28125,-0.5000001 0.671875,-0.9375003 -0.171875,-0.21875 -0.3125,-0.40625 -0.125,-0.203125 -0.234375,-0.4375 -0.09375,-0.234375 -0.140625,-0.5 -0.04687,-0.28125 -0.04687,-0.625 0,-0.703125 0.25,-1.28125 0.265625,-0.59375 0.734375,-1.015625 0.46875,-0.421875 1.125,-0.65625 0.671875,-0.234375 1.46875,-0.234375 0.34375,0 0.640625,0.04687 0.3125,0.04687 0.546875,0.125 h 3.328125 v 1.28125 z m -5.5,9.1875003 q 0,0.640625 0.671875,0.9375 0.671875,0.296875 1.875,0.296875 0.75,0 1.265625,-0.140625 0.515625,-0.140625 0.828125,-0.359375 0.3125,-0.21875 0.453125,-0.515625 0.140625,-0.28125 0.140625,-0.578125 0,-0.5625 -0.453125,-0.828125 -0.453125,-0.265625 -1.390625,-0.296875 l -2.390625,-0.09375 q -0.296875,0.203125 -0.5,0.390625 -0.203125,0.203125 -0.3125,0.390625 -0.109375,0.203125 -0.15625,0.390625 -0.03125,0.203125 -0.03125,0.40625 z m 0.484375,-7.4843753 q 0,0.4375 0.140625,0.8125 0.140625,0.359375 0.40625,0.609375 0.265625,0.25 0.625,0.390625 0.359375,0.140625 0.796875,0.140625 0.46875,0 0.84375,-0.15625 0.375,-0.15625 0.625,-0.421875 0.25,-0.28125 0.375,-0.640625 0.140625,-0.359375 0.140625,-0.734375 0,-0.4375 -0.15625,-0.796875 -0.140625,-0.375 -0.40625,-0.625 -0.265625,-0.25 -0.625,-0.390625 -0.359375,-0.140625 -0.796875,-0.140625 -0.46875,0 -0.84375,0.171875 -0.359375,0.15625 -0.625,0.421875 -0.25,0.265625 -0.375,0.625 -0.125,0.34375 -0.125,0.734375 z m 15.929169,3.6562503 q 0,0.484375 -0.171875,0.875 -0.15625,0.375 -0.4375,0.671875 -0.28125,0.296875 -0.65625,0.515625 -0.375,0.203125 -0.796875,0.34375 -0.421875,0.125 -0.875,0.1875 -0.453125,0.0625 -0.875,0.0625 -0.921875,0 -1.703125,-0.07813 -0.78125,-0.07813 -1.53125,-0.265625 v -1.45312 q 0.796875,0.234375 1.59375,0.359375 0.796875,0.109375 1.578125,0.109375 1.140625,0 1.6875,-0.3125 0.546875,-0.3125 0.546875,-0.890625 0,-0.234375 -0.09375,-0.421875 -0.07813,-0.203125 -0.3125,-0.375 -0.21875,-0.1875 -0.703125,-0.375 -0.484375,-0.2031251 -1.3125,-0.4375002 -0.609375,-0.1875001 -1.140625,-0.4218751 -0.515625,-0.234375 -0.90625,-0.546875 -0.375,-0.328125 -0.59375,-0.75 -0.21875,-0.421875 -0.21875,-1.015625 0,-0.375 0.171875,-0.828125 0.171875,-0.453125 0.59375,-0.84375 0.4375,-0.40625 1.171875,-0.65625 0.734375,-0.265625 1.8125,-0.265625 0.546875,0 1.203125,0.0625 0.65625,0.0625 1.359375,0.203125 v 1.40625 q -0.75,-0.171875 -1.421875,-0.25 -0.65625,-0.09375 -1.15625,-0.09375 -0.59375,0 -1,0.09375 -0.390625,0.07813 -0.65625,0.25 -0.25,0.15625 -0.359375,0.375 -0.109375,0.203125 -0.109375,0.453125 0,0.25 0.09375,0.453125 0.109375,0.1875 0.359375,0.375 0.265625,0.1875 0.71875,0.375 0.46875,0.1875 1.21875,0.40625 0.8125,0.234375 1.359375,0.5 0.5625,0.25 0.90625,0.578125 0.359375,0.3125002 0.5,0.7187503 0.15625,0.40625 0.15625,0.90625 z M 69.312573,7.9475427 q 0,0.34375 -0.01563,0.578125 0,0.21875 -0.03125,0.4218751 h -6.421875 q 0,1.4062502 0.78125,2.1562502 0.796875,0.75 2.265625,0.75 0.40625,0 0.796875,-0.03125 0.40625,-0.03125 0.78125,-0.07813 0.375,-0.0625 0.71875,-0.125 0.34375,-0.07813 0.625,-0.15625 v 1.296875 q -0.640625,0.1875 -1.46875,0.296875 -0.8125,0.109375 -1.6875,0.109375 -1.171875,0 -2.015625,-0.3125 -0.84375,-0.3125 -1.390625,-0.921875 -0.546875,-0.609375 -0.8125,-1.484375 -0.25,-0.875 -0.25,-2.0000003 0,-0.953125 0.28125,-1.8125 0.28125,-0.859375 0.8125,-1.515625 0.53125,-0.65625 1.296875,-1.03125 0.78125,-0.390625 1.765625,-0.390625 0.953125,0 1.6875,0.3125 0.75,0.296875 1.25,0.84375 0.5,0.546875 0.765625,1.34375 0.265625,0.78125 0.265625,1.75 z m -1.65625,-0.21875 q 0.03125,-0.609375 -0.125,-1.109375 -0.140625,-0.515625 -0.453125,-0.875 -0.296875,-0.375 -0.75,-0.578125 -0.453125,-0.203125 -1.0625,-0.203125 -0.515625,0 -0.953125,0.203125 -0.421875,0.203125 -0.734375,0.5625 -0.296875,0.359375 -0.5,0.875 -0.1875,0.515625 -0.234375,1.125 z m 12.147915,0.640625 q 0,1.0625003 -0.312496,1.9531253 -0.296875,0.890625 -0.859375,1.53125 -0.5625,0.625 -1.375,0.96875 -0.8125,0.34375 -1.84375,0.34375 -0.984375,0 -1.765625,-0.296875 -0.765625,-0.3125 -1.3125,-0.890625 -0.546875,-0.59375 -0.828125,-1.46875 -0.28125,-0.875 -0.28125,-2.0156253 0,-1.0625 0.296875,-1.9375 0.296875,-0.890625 0.859375,-1.515625 0.5625,-0.640625 1.375,-0.984375 0.8125,-0.359375 1.84375,-0.359375 0.984375,0 1.765625,0.3125 0.78125,0.296875 1.3125,0.890625 0.546875,0.578125 0.828125,1.453125 0.296871,0.875 0.296871,2.015625 z m -1.624996,0.0625 q 0,-0.84375 -0.1875,-1.46875 -0.1875,-0.640625 -0.53125,-1.0625 -0.34375,-0.421875 -0.84375,-0.640625 -0.5,-0.21875 -1.109375,-0.21875 -0.703125,0 -1.21875,0.28125 -0.5,0.28125 -0.828125,0.75 -0.3125,0.453125 -0.46875,1.078125 -0.15625,0.609375 -0.15625,1.28125 0,0.8593752 0.1875,1.5000003 0.1875,0.625 0.53125,1.046875 0.359375,0.421875 0.84375,0.640625 0.5,0.21875 1.109375,0.21875 0.71875,0 1.21875,-0.28125 0.5,-0.28125 0.828125,-0.734375 0.328125,-0.46875 0.46875,-1.078125 0.15625,-0.6250002 0.15625,-1.3125003 z m 12.147916,4.5781253 h -2.1875 l -4.25,-4.9062503 v 4.9062503 h -1.59375 V 0.13504284 h 1.59375 V 8.0412927 l 4.09375,-4.171875 h 2.10938 l -4.29688,4.21875 z m 7.67917,-3.7187501 q -0.0937,0.5781251 -0.10937,0.9687501 0,0.375 0.0625,0.59375 0.0625,0.21875 0.1875,0.3125 0.125,0.07813 0.3125,0.07813 0.26562,0 0.48437,-0.265625 0.23438,-0.265625 0.406255,-0.828125 0.1875,-0.5625 0.281245,-1.4062503 0.10938,-0.859375 0.10938,-2.03125 0,-1.3125 -0.17188,-2.34375 -0.156245,-1.03125 -0.51562,-1.75 -0.34375,-0.71875 -0.92188,-1.09375 -0.5625,-0.390625 -1.375,-0.390625 -0.625,0 -1.20312,0.328125 -0.57813,0.3125 -1.07813,0.875 -0.48437,0.5625 -0.89062,1.359375 -0.40625,0.796875 -0.70313,1.765625 -0.28125,0.96875 -0.4375,2.078125 -0.15625,1.109375 -0.15625,2.3125003 0,2.9375 0.875,4.375 0.89063,1.453125 2.48438,1.453125 0.8125,0 1.51562,-0.1875 0.70313,-0.1875 1.45313,-0.5625 v 1.171875 q -0.73438,0.34375 -1.48438,0.515625 -0.75,0.1875 -1.5625,0.1875 -2.32812,0 -3.45312,-1.75 -1.10938,-1.734375 -1.125,-5.1875 -0.0156,-1.3750003 0.17187,-2.6250003 0.20313,-1.265625 0.5625,-2.359375 0.35938,-1.09375 0.875,-1.984375 0.51563,-0.90625 1.15625,-1.53125 0.65625,-0.64062488 1.42188,-0.98437476 0.76562,-0.3593751 1.625,-0.3593751 1.09375,0 1.89062,0.45312506 0.796885,0.43749984 1.312532,1.2656248 0.51563,0.828125 0.76563,2.046875 0.25,1.21875 0.25,2.765625 0,1.5625 -0.20313,2.6875002 -0.1875,1.1093751 -0.54687,1.8281251 -0.35941,0.703125 -0.875027,1.03125 -0.500005,0.328125 -1.109385,0.328125 -0.71875,0 -1.0625,-0.359375 -0.34375,-0.359375 -0.34375,-0.984375 -0.34375,0.703125 -0.75,1.03125 -0.39062,0.3125 -0.96875,0.3125 -0.84375,0 -1.28125,-0.640625 -0.42187,-0.640625 -0.42187,-2.03125 0,-0.5000001 0.0469,-1.0625003 0.0625,-0.578125 0.20313,-1.15625 0.14062,-0.578125 0.375,-1.109375 0.23437,-0.53125 0.5625,-0.9375 0.32812,-0.40625 0.78125,-0.65625 0.45312,-0.25 1.04687,-0.25 0.34375,0 0.64063,0.09375 0.29687,0.07813 0.4375,0.15625 l 1.17187,-0.28125 z m -0.9375,-3.2343752 q -0.0781,-0.109375 -0.25,-0.1875 -0.17187,-0.09375 -0.42187,-0.09375 -0.26563,0 -0.48438,0.1875 -0.21875,0.1875 -0.39062,0.515625 -0.17188,0.3125 -0.28125,0.71875 -0.10938,0.40625 -0.1875,0.828125 -0.0781,0.421875 -0.10938,0.84375 -0.0312,0.4218752 -0.0312,0.7500003 0,0.875 0.10938,1.25 0.10937,0.375 0.40625,0.375 0.10937,0 0.21875,-0.03125 0.10937,-0.04687 0.23437,-0.171875 0.125,-0.140625 0.26563,-0.375 0.15625,-0.25 0.32812,-0.625 z m 12.132332,-0.90625 q 0.25,0.328125 0.39062,0.75 0.14063,0.421875 0.14063,0.921875 0,0.703125 -0.26563,1.296875 -0.25,0.578125 -0.73437,1.0000001 -0.46875,0.4218752 -1.125,0.6562502 -0.65625,0.234375 -1.45313,0.234375 -0.57812,0 -1.07812,-0.125 -0.5,-0.125 -0.78125,-0.3125 -0.1875,0.265625 -0.3125,0.5 -0.10938,0.21875 -0.10938,0.5 0,0.34375 0.32813,0.578125 0.34375,0.21875 0.89062,0.234375 l 2.40625,0.09375 q 0.67188,0.01563 1.25,0.171875 0.59375,0.15625 1,0.453125 0.42188,0.28125 0.64063,0.71875 0.23437,0.421875 0.23437,0.984375 0,0.609375 -0.26562,1.15625 -0.25,0.546875 -0.8125,0.953125 -0.54688,0.421875 -1.39063,0.671875 -0.84375,0.25 -2.01562,0.25 -1.10938,0 -1.89063,-0.1875 -0.78125,-0.171875 -1.28125,-0.484375 -0.5,-0.3125 -0.73437,-0.75 -0.21875,-0.421875 -0.21875,-0.953125 0,-0.65625 0.29687,-1.15625 0.3125,-0.5 0.96875,-0.96875 -0.23437,-0.109375 -0.40625,-0.265625 -0.17187,-0.171875 -0.28125,-0.359375 -0.10937,-0.203125 -0.17187,-0.421875 -0.0469,-0.21875 -0.0469,-0.4375 0,-0.578125 0.26563,-1.0625 0.28125,-0.5000001 0.67187,-0.9375003 -0.17187,-0.21875 -0.3125,-0.40625 -0.125,-0.203125 -0.23437,-0.4375 -0.0937,-0.234375 -0.14063,-0.5 -0.0469,-0.28125 -0.0469,-0.625 0,-0.703125 0.25,-1.28125 0.26562,-0.59375 0.73437,-1.015625 0.46875,-0.421875 1.125,-0.65625 0.67188,-0.234375 1.46875,-0.234375 0.34375,0 0.64063,0.04687 0.3125,0.04687 0.54687,0.125 h 3.32813 v 1.28125 z m -5.5,9.1875003 q 0,0.640625 0.67187,0.9375 0.67188,0.296875 1.875,0.296875 0.75,0 1.26563,-0.140625 0.51562,-0.140625 0.82812,-0.359375 0.3125,-0.21875 0.45313,-0.515625 0.14062,-0.28125 0.14062,-0.578125 0,-0.5625 -0.45312,-0.828125 -0.45313,-0.265625 -1.39063,-0.296875 l -2.39062,-0.09375 q -0.29688,0.203125 -0.5,0.390625 -0.20313,0.203125 -0.3125,0.390625 -0.10938,0.203125 -0.15625,0.390625 -0.0312,0.203125 -0.0312,0.40625 z m 0.48437,-7.4843753 q 0,0.4375 0.14063,0.8125 0.14062,0.359375 0.40625,0.609375 0.26562,0.25 0.625,0.390625 0.35937,0.140625 0.79687,0.140625 0.46875,0 0.84375,-0.15625 0.375,-0.15625 0.625,-0.421875 0.25,-0.28125 0.375,-0.640625 0.14063,-0.359375 0.14063,-0.734375 0,-0.4375 -0.15625,-0.796875 -0.14063,-0.375 -0.40625,-0.625 -0.26563,-0.25 -0.625,-0.390625 -0.35938,-0.140625 -0.79688,-0.140625 -0.46875,0 -0.84375,0.171875 -0.35937,0.15625 -0.625,0.421875 -0.25,0.265625 -0.375,0.625 -0.125,0.34375 -0.125,0.734375 z m 14.55417,6.1562503 -0.0312,-1.234375 q -0.75,0.75 -1.51563,1.078125 -0.76562,0.3125 -1.625,0.3125 -0.78125,0 -1.34375,-0.1875 -0.54687,-0.203125 -0.90625,-0.546875 -0.35937,-0.359375 -0.53125,-0.828125 -0.15625,-0.484375 -0.15625,-1.03125 0,-1.3750001 1.01563,-2.1562503 1.03125,-0.78125 3.03125,-0.78125 h 1.89062 v -0.796875 q 0,-0.8125 -0.51562,-1.296875 -0.51563,-0.5 -1.57813,-0.5 -0.78125,0 -1.53125,0.1875 -0.75,0.171875 -1.54687,0.484375 v -1.4375 q 0.29687,-0.109375 0.65625,-0.203125 0.375,-0.109375 0.78125,-0.1875 0.40625,-0.07813 0.85937,-0.125 0.45313,-0.0625 0.90625,-0.0625 0.82813,0 1.48438,0.1875 0.67187,0.171875 1.125,0.546875 0.46875,0.375 0.70312,0.953125 0.25,0.5625 0.25,1.328125 v 6.2968753 z m -0.17188,-4.1562503 h -2.01562 q -0.57813,0 -1.01563,0.1250001 -0.42187,0.109375 -0.70312,0.3281251 -0.26563,0.2187501 -0.40625,0.5312501 -0.125,0.296875 -0.125,0.671875 0,0.265625 0.0781,0.515625 0.0781,0.234375 0.26563,0.421875 0.1875,0.1875 0.46875,0.296875 0.29687,0.109375 0.71875,0.109375 0.54687,0 1.25,-0.328125 0.70312,-0.34375 1.48437,-1.0625 z m 11.92917,4.0312503 q -0.53125,0.140625 -1.10937,0.1875 -0.57813,0.0625 -1.17188,0.0625 -1.71875,0 -2.5625,-0.78125 -0.84375,-0.78125 -0.84375,-2.390625 V 5.1975427 h -2.5625 v -1.328125 h 2.5625 v -2.515625 l 1.57813,-0.40625 v 2.921875 h 4.10937 v 1.328125 h -4.10937 V 9.838168 q 0,0.984375 0.51562,1.46875 0.53125,0.484375 1.54688,0.484375 0.4375,0 0.95312,-0.0625 0.53125,-0.0625 1.09375,-0.21875 z m 10.61667,-4.9375003 q 0,0.34375 -0.0156,0.578125 0,0.21875 -0.0312,0.4218751 h -6.42188 q 0,1.4062502 0.78125,2.1562502 0.79688,0.75 2.26563,0.75 0.40625,0 0.79687,-0.03125 0.40625,-0.03125 0.78125,-0.07813 0.375,-0.0625 0.71875,-0.125 0.34375,-0.07813 0.625,-0.15625 v 1.296875 q -0.64062,0.1875 -1.46875,0.296875 -0.8125,0.109375 -1.6875,0.109375 -1.17187,0 -2.01562,-0.3125 -0.84375,-0.3125 -1.39063,-0.921875 -0.54687,-0.609375 -0.8125,-1.484375 -0.25,-0.875 -0.25,-2.0000003 0,-0.953125 0.28125,-1.8125 0.28125,-0.859375 0.8125,-1.515625 0.53125,-0.65625 1.29688,-1.03125 0.78125,-0.390625 1.76562,-0.390625 0.95313,0 1.6875,0.3125 0.75,0.296875 1.25,0.84375 0.5,0.546875 0.76563,1.34375 0.26562,0.78125 0.26562,1.75 z m -1.65625,-0.21875 q 0.0312,-0.609375 -0.125,-1.109375 -0.14062,-0.515625 -0.45312,-0.875 -0.29688,-0.375 -0.75,-0.578125 -0.45313,-0.203125 -1.0625,-0.203125 -0.51563,0 -0.95313,0.203125 -0.42187,0.203125 -0.73437,0.5625 -0.29688,0.359375 -0.5,0.875 -0.1875,0.515625 -0.23438,1.125 z m 11.28855,4.9375003 q -0.625,0.25 -1.28125,0.359375 -0.64063,0.109375 -1.32813,0.109375 -2.17187,0 -3.34375,-1.171875 -1.17187,-1.171875 -1.17187,-3.4375003 0,-1.078125 0.32812,-1.953125 0.34375,-0.890625 0.95313,-1.515625 0.60937,-0.640625 1.45312,-0.984375 0.85938,-0.34375 1.875,-0.34375 0.71875,0 1.32813,0.109375 0.625,0.09375 1.1875,0.328125 v 1.515625 q -0.59375,-0.3125 -1.21875,-0.453125 -0.60938,-0.140625 -1.26563,-0.140625 -0.60937,0 -1.15625,0.234375 -0.53125,0.234375 -0.9375,0.671875 -0.40625,0.421875 -0.65625,1.0625 -0.23437,0.625 -0.23437,1.421875 0,1.6562503 0.79687,2.4843753 0.8125,0.8125 2.25,0.8125 0.64063,0 1.25,-0.140625 0.60938,-0.140625 1.17188,-0.4375 z m 10.50729,0.34375 H 159.6595 V 7.1662927 q 0,-1.046875 -0.39062,-1.5625 -0.39063,-0.53125 -1.14063,-0.53125 -0.3125,0 -0.59375,0.09375 -0.28125,0.07813 -0.57812,0.296875 -0.29688,0.203125 -0.65625,0.578125 -0.35938,0.359375 -0.8125,0.90625 v 6.0625003 h -1.59375 V 0.13504284 h 1.59375 V 3.8694177 l -0.0625,1.4375 q 0.375,-0.453125 0.73437,-0.75 0.35938,-0.3125 0.71875,-0.5 0.35938,-0.1875 0.73438,-0.265625 0.375,-0.09375 0.78125,-0.09375 1.35937,0 2.10937,0.84375 0.75,0.828125 0.75,2.5 z m 6.50729,-2.875 q 0.29688,0 0.57813,0.125 0.28125,0.125 0.48437,0.328125 0.20313,0.203125 0.3125,0.484375 0.125,0.28125 0.125,0.59375 0,0.3125 -0.125,0.59375 -0.10937,0.265625 -0.3125,0.46875 -0.20312,0.203125 -0.48437,0.3125 -0.28125,0.125 -0.57813,0.125 -0.32812,0 -0.60937,-0.125 -0.26563,-0.109375 -0.46875,-0.3125 -0.20313,-0.203125 -0.32813,-0.46875 -0.10937,-0.28125 -0.10937,-0.59375 0,-0.3125 0.10937,-0.59375 0.125,-0.28125 0.32813,-0.484375 0.20312,-0.203125 0.46875,-0.328125 0.28125,-0.125 0.60937,-0.125 z m 14.3823,-2.1875003 q 0,0.34375 -0.0156,0.578125 0,0.21875 -0.0312,0.4218751 h -6.42187 q 0,1.4062502 0.78125,2.1562502 0.79687,0.75 2.26562,0.75 0.40625,0 0.79688,-0.03125 0.40625,-0.03125 0.78125,-0.07813 0.375,-0.0625 0.71875,-0.125 0.34375,-0.07813 0.625,-0.15625 v 1.296875 q -0.64063,0.1875 -1.46875,0.296875 -0.8125,0.109375 -1.6875,0.109375 -1.17188,0 -2.01563,-0.3125 -0.84375,-0.3125 -1.39062,-0.921875 -0.54688,-0.609375 -0.8125,-1.484375 -0.25,-0.875 -0.25,-2.0000003 0,-0.953125 0.28125,-1.8125 0.28125,-0.859375 0.8125,-1.515625 0.53125,-0.65625 1.29687,-1.03125 0.78125,-0.390625 1.76563,-0.390625 0.95312,0 1.6875,0.3125 0.75,0.296875 1.25,0.84375 0.5,0.546875 0.76562,1.34375 0.26563,0.78125 0.26563,1.75 z m -1.65625,-0.21875 q 0.0312,-0.609375 -0.125,-1.109375 -0.14063,-0.515625 -0.45313,-0.875 -0.29687,-0.375 -0.75,-0.578125 -0.45312,-0.203125 -1.0625,-0.203125 -0.51562,0 -0.95312,0.203125 -0.42188,0.203125 -0.73438,0.5625 -0.29687,0.359375 -0.5,0.875 -0.1875,0.515625 -0.23437,1.125 z m 3.72604,0.90625 q 0,-1.171875 0.3125,-2.078125 0.3125,-0.90625 0.90625,-1.53125 0.59375,-0.625 1.40625,-0.9375 0.82813,-0.328125 1.84375,-0.328125 0.4375,0 0.85938,0.0625 0.42187,0.04687 0.82812,0.15625 V 0.13504284 h 1.59375 V 13.010043 h -1.42187 l -0.0469,-1.734375 q -0.67187,0.96875 -1.45312,1.4375 -0.76563,0.453125 -1.67188,0.453125 -0.78125,0 -1.375,-0.3125 -0.59375,-0.328125 -1,-0.921875 -0.39062,-0.609375 -0.59375,-1.4375 -0.1875,-0.84375 -0.1875,-1.8593753 z m 1.60938,-0.109375 q 0,1.6562503 0.48437,2.4843753 0.5,0.8125 1.39063,0.8125 0.59375,0 1.26562,-0.53125 0.67188,-0.546875 1.40625,-1.609375 V 5.4475427 q -0.39062,-0.1875 -0.85937,-0.28125 -0.46875,-0.09375 -0.9375,-0.09375 -1.29688,0 -2.03125,0.84375 -0.71875,0.828125 -0.71875,2.609375 z m 16.46042,4.4843753 h -1.42188 l -0.0625,-1.46875 q -0.40625,0.46875 -0.78125,0.78125 -0.35937,0.3125 -0.73437,0.515625 -0.35938,0.1875 -0.73438,0.25 -0.35937,0.07813 -0.76562,0.07813 -1.42188,0 -2.14063,-0.828125 -0.71875,-0.828125 -0.71875,-2.5 V 3.8694227 h 1.59375 V 9.713173 q 0,2.109375 1.57813,2.109375 0.29687,0 0.5625,-0.07813 0.28125,-0.09375 0.57812,-0.3125 0.3125,-0.21875 0.65625,-0.578125 0.35938,-0.359375 0.79688,-0.921875 V 3.8694177 h 1.59375 z"
       fill-rule="nonzero"
       id="path9" />
  </g>
</svg>
